<svg width="558" height="536" viewBox="0 0 558 536" fill="none" xmlns="http://www.w3.org/2000/svg">
<path d="M230.261 447.589L235.16 434.261L249.571 440.925L242.971 456.411L230.261 447.589Z" fill="#FFBFA6"/>
<path d="M229.61 445.462L245.936 452.989L238.137 471.544C238.137 471.544 250.151 477.219 249.552 485.068L219.723 471.301L229.61 445.462Z" fill="#292433"/>
<path d="M249.519 485.034L219.693 471.266L218.413 475.376L248.24 489.144L249.519 485.034Z" fill="#292433"/>
<path d="M330.987 475.578L335.885 462.243L350.297 468.907L343.691 484.393L330.987 475.578Z" fill="#FFBFA6"/>
<path d="M264.492 256.215H60.3851C59.8237 256.215 59.2679 256.078 58.7506 255.812C58.2334 255.546 57.7653 255.156 57.3741 254.666C56.9828 254.175 56.6763 253.594 56.4728 252.957C56.2693 252.32 56.1729 251.639 56.1893 250.956L61.2294 43.0517C61.2613 41.7524 61.7081 40.5195 62.4748 39.6151C63.2415 38.7108 64.2676 38.2062 65.335 38.2089H268.23C268.935 38.2085 269.633 38.3804 270.282 38.7143C270.932 39.0482 271.52 39.5373 272.011 40.1528C272.503 40.7682 272.888 41.4975 273.144 42.2974C273.4 43.0973 273.522 43.9517 273.502 44.8099L268.675 251.238C268.646 252.568 268.193 253.831 267.412 254.76C266.631 255.689 265.584 256.211 264.492 256.215Z" fill="#BBBBBB"/>
<path d="M124.663 59.9114H85.805V99.0779H124.663V59.9114Z" fill="#E9E9E9"/>
<path d="M183.353 59.9114H144.495V99.0779H183.353V59.9114Z" fill="#E9E9E9"/>
<path d="M239.903 59.9114H201.045V99.0779H239.903V59.9114Z" fill="#E9E9E9"/>
<path d="M123.729 124.854H84.8704V164.02H123.729V124.854Z" fill="#E9E9E9"/>
<path d="M182.419 124.854H143.561V164.02H182.419V124.854Z" fill="#E9E9E9"/>
<path d="M238.962 124.854H200.104V164.02H238.962V124.854Z" fill="#E9E9E9"/>
<path d="M122.253 193.721H83.3945V232.888H122.253V193.721Z" fill="#E9E9E9"/>
<path d="M179.067 193.721H140.209V232.888H179.067V193.721Z" fill="#E9E9E9"/>
<path d="M238.427 193.721H199.569V232.888H238.427V193.721Z" fill="#E9E9E9"/>
<path d="M91.4381 71.8184H120.113" stroke="#4D488E" stroke-miterlimit="10"/>
<path d="M91.4381 84.5493H120.113" stroke="#4D488E" stroke-miterlimit="10"/>
<path d="M150.515 71.8184H170.224" stroke="#4D488E" stroke-miterlimit="10"/>
<path d="M150.515 84.5493H179.19" stroke="#4D488E" stroke-miterlimit="10"/>
<path d="M210.945 84.5493H231.325" stroke="#4D488E" stroke-miterlimit="10"/>
<path d="M211.08 78.9216H231.46" stroke="#4D488E" stroke-miterlimit="10"/>
<path d="M211.08 73.286H231.46" stroke="#4D488E" stroke-miterlimit="10"/>
<path d="M90.8838 150.065H120.113" stroke="#4D488E" stroke-miterlimit="10"/>
<path d="M91.0192 138.809H111.399" stroke="#4D488E" stroke-miterlimit="10"/>
<path d="M149.052 140.356H175.587" stroke="#4D488E" stroke-miterlimit="10"/>
<path d="M149.522 145.826H176.057" stroke="#4D488E" stroke-miterlimit="10"/>
<path d="M206.034 137.624H234.412" stroke="#4D488E" stroke-miterlimit="10"/>
<path d="M206.034 150.065H234.412" stroke="#4D488E" stroke-miterlimit="10"/>
<path d="M149.522 151.289H176.057" stroke="#4D488E" stroke-miterlimit="10"/>
<path d="M88.6151 206.837H115.15" stroke="#4D488E" stroke-miterlimit="10"/>
<path d="M89.0856 212.307H115.621" stroke="#4D488E" stroke-miterlimit="10"/>
<path d="M89.0856 217.77H115.621" stroke="#4D488E" stroke-miterlimit="10"/>
<path d="M146.139 208.626H173.821" stroke="#4D488E" stroke-miterlimit="10"/>
<path d="M146.628 221.279H174.311" stroke="#4D488E" stroke-miterlimit="10"/>
<path d="M206.388 208.061H226.291" stroke="#4D488E" stroke-miterlimit="10"/>
<path d="M206.878 220.706H234.56" stroke="#4D488E" stroke-miterlimit="10"/>
<path d="M162.322 64.0164C162.322 64.0164 286.715 65.5862 429.347 47.2274" stroke="#BCBEC0" stroke-miterlimit="10"/>
<path d="M105.772 64.0557L163.927 130.348L429.347 50.9008" stroke="#BCBEC0" stroke-miterlimit="10"/>
<path d="M222.592 127.075L364.289 78.9216" stroke="#BCBEC0" stroke-miterlimit="10"/>
<path d="M104.296 196.923L350.078 91.5664" stroke="#BCBEC0" stroke-miterlimit="10"/>
<path d="M102.827 129.603L162.993 195.613C162.993 195.613 326.379 97.0764 352.23 91.5664" stroke="#BCBEC0" stroke-miterlimit="10"/>
<path d="M224.093 195.613C224.093 195.613 289.325 145.866 331.548 120.16" stroke="#BCBEC0" stroke-miterlimit="10"/>
<path d="M301.275 260.131C301.275 260.131 291.607 269.597 286.805 297.336C286.805 297.336 282.248 314.964 275.281 323.449C268.37 332.949 263.735 344.577 261.882 357.066C261.882 357.066 257.325 375.339 251.962 382.521C251.962 382.521 240.174 400.793 241.244 417.111C241.244 417.111 239.633 429.191 234.006 434.379C234.006 434.379 235.882 440.258 248.746 447.722L281.172 395.589C281.172 395.589 296.989 369.484 299.399 360.018L318.696 313.96C318.696 313.96 326.198 323.747 326.198 330.278C326.198 330.278 340.668 361.281 345.495 364.868C345.495 364.868 344.947 376.296 352.991 379.883C352.991 379.883 345.257 389.02 347.635 408.925L342.279 423.94C342.279 423.94 334.235 431.789 335.834 446.459C335.834 449.064 333.423 459.802 329.666 466.693L352.978 476.481C352.978 476.481 373.603 401.091 377.637 391.955C381.672 382.819 381.395 367.804 377.637 360.622C373.88 353.44 356.736 280.664 356.736 280.664C356.736 280.664 339.978 279.095 332.811 268.294C332.811 268.294 324.129 255.924 309.499 263.083C309.512 263.114 299.934 264.378 301.275 260.131Z" fill="#292433"/>
<path d="M370.818 152.27L379.932 135.301L370.818 125.184L361.505 129.603L354.448 145.473" fill="#FFBFA6"/>
<path d="M496.493 18.8768C489.907 18.8768 483.468 21.2554 477.992 25.7117C472.515 30.168 468.247 36.502 465.726 43.9126C463.205 51.3232 462.546 59.4776 463.831 67.3446C465.116 75.2117 468.288 82.438 472.945 88.1098C477.602 93.7817 483.536 97.6442 489.996 99.2091C496.456 100.774 503.152 99.9708 509.238 96.9012C515.323 93.8317 520.524 88.6335 524.183 81.9642C527.843 75.2948 529.796 67.4538 529.796 59.4326C529.797 54.1064 528.936 48.8323 527.263 43.9114C525.589 38.9904 523.136 34.5192 520.044 30.753C516.951 26.9869 513.279 23.9996 509.239 21.9619C505.198 19.9241 500.867 18.8758 496.493 18.8768ZM496.493 93.5365C490.953 93.5365 485.537 91.5357 480.931 87.7871C476.324 84.0385 472.734 78.7105 470.614 72.4769C468.494 66.2434 467.94 59.3842 469.021 52.767C470.103 46.1497 472.771 40.0716 476.689 35.3013C480.607 30.531 485.599 27.2828 491.033 25.9675C496.467 24.6522 502.099 25.3288 507.217 27.9119C512.335 30.4949 516.71 34.8683 519.787 40.479C522.864 46.0897 524.506 52.6856 524.504 59.4326C524.504 63.9118 523.78 68.3472 522.372 72.4854C520.964 76.6236 518.901 80.3835 516.3 83.5505C513.699 86.7174 510.611 89.2293 507.212 90.9427C503.814 92.6561 500.172 93.5375 496.493 93.5365Z" fill="#BBBBBB"/>
<path d="M497.744 63.0431C497.574 63.0436 497.41 62.9713 497.28 62.839L480.741 45.3515C480.671 45.2785 480.613 45.189 480.571 45.0884C480.529 44.9877 480.504 44.8778 480.497 44.7652C480.491 44.6527 480.502 44.5396 480.532 44.4327C480.562 44.3258 480.609 44.2272 480.67 44.1427C480.793 43.9725 480.966 43.868 481.152 43.8519C481.338 43.8357 481.521 43.9092 481.663 44.0564L497.041 60.3116V33.68C497.041 33.4531 497.115 33.2355 497.247 33.075C497.379 32.9146 497.557 32.8245 497.744 32.8245C497.93 32.8245 498.109 32.9146 498.241 33.075C498.372 33.2355 498.446 33.4531 498.446 33.68V62.1876C498.446 62.3527 498.408 62.5145 498.335 62.6536C498.261 62.7927 498.157 62.9034 498.034 62.9725C497.942 63.0191 497.843 63.0431 497.744 63.0431Z" fill="#BBBBBB"/>
<path d="M497.041 89.1568C496.855 89.1568 496.676 89.0666 496.544 88.9062C496.413 88.7457 496.339 88.5281 496.339 88.3012V74.432C496.356 74.2183 496.437 74.0198 496.568 73.8754C496.698 73.7309 496.868 73.6509 497.044 73.6509C497.221 73.6509 497.391 73.7309 497.521 73.8754C497.652 74.0198 497.733 74.2183 497.75 74.432V88.3012C497.75 88.4142 497.732 88.5261 497.696 88.6304C497.66 88.7348 497.608 88.8294 497.542 88.909C497.476 88.9885 497.398 89.0514 497.312 89.0939C497.226 89.1364 497.134 89.1578 497.041 89.1568Z" fill="#BBBBBB"/>
<path d="M521.166 60.2881H509.771C509.595 60.2677 509.432 60.1683 509.313 60.0094C509.195 59.8505 509.129 59.6434 509.129 59.4287C509.129 59.2139 509.195 59.0069 509.313 58.848C509.432 58.6891 509.595 58.5897 509.771 58.5692H521.166C521.341 58.5897 521.504 58.6891 521.623 58.848C521.741 59.0069 521.807 59.2139 521.807 59.4287C521.807 59.6434 521.741 59.8505 521.623 60.0094C521.504 60.1683 521.341 60.2677 521.166 60.2881Z" fill="#BBBBBB"/>
<path d="M483.39 60.2881H471.989C471.813 60.2677 471.65 60.1683 471.532 60.0094C471.413 59.8505 471.347 59.6434 471.347 59.4287C471.347 59.2139 471.413 59.0069 471.532 58.848C471.65 58.6891 471.813 58.5897 471.989 58.5692H483.39C483.566 58.5897 483.729 58.6891 483.847 58.848C483.966 59.0069 484.032 59.2139 484.032 59.4287C484.032 59.6434 483.966 59.8505 483.847 60.0094C483.729 60.1683 483.566 60.2677 483.39 60.2881Z" fill="#BBBBBB"/>
<path d="M105.237 66.9127C108.053 66.9127 110.335 64.133 110.335 60.7042C110.335 57.2753 108.053 54.4956 105.237 54.4956C102.422 54.4956 100.139 57.2753 100.139 60.7042C100.139 64.133 102.422 66.9127 105.237 66.9127Z" fill="#E6E7E8"/>
<path d="M163.927 66.12C166.743 66.12 169.025 63.3403 169.025 59.9114C169.025 56.4825 166.743 53.7029 163.927 53.7029C161.112 53.7029 158.829 56.4825 158.829 59.9114C158.829 63.3403 161.112 66.12 163.927 66.12Z" fill="#E6E7E8"/>
<path d="M105.237 131.149C108.053 131.149 110.335 128.369 110.335 124.94C110.335 121.511 108.053 118.732 105.237 118.732C102.422 118.732 100.139 121.511 100.139 124.94C100.139 128.369 102.422 131.149 105.237 131.149Z" fill="#E6E7E8"/>
<path d="M163.927 130.348C166.743 130.348 169.025 127.569 169.025 124.14C169.025 120.711 166.743 117.931 163.927 117.931C161.112 117.931 158.829 120.711 158.829 124.14C158.829 127.569 161.112 130.348 163.927 130.348Z" fill="#E6E7E8"/>
<path d="M225.64 66.12C228.456 66.12 230.738 63.3403 230.738 59.9114C230.738 56.4825 228.456 53.7029 225.64 53.7029C222.825 53.7029 220.542 56.4825 220.542 59.9114C220.542 63.3403 222.825 66.12 225.64 66.12Z" fill="#E6E7E8"/>
<path d="M224.093 130.749C226.909 130.749 229.191 127.969 229.191 124.54C229.191 121.111 226.909 118.331 224.093 118.331C221.278 118.331 218.995 121.111 218.995 124.54C218.995 127.969 221.278 130.749 224.093 130.749Z" fill="#E6E7E8"/>
<path d="M105.424 200.236C108.24 200.236 110.522 197.456 110.522 194.027C110.522 190.598 108.24 187.819 105.424 187.819C102.609 187.819 100.326 190.598 100.326 194.027C100.326 197.456 102.609 200.236 105.424 200.236Z" fill="#E6E7E8"/>
<path d="M164.114 199.443C166.93 199.443 169.212 196.663 169.212 193.234C169.212 189.806 166.93 187.026 164.114 187.026C161.299 187.026 159.016 189.806 159.016 193.234C159.016 196.663 161.299 199.443 164.114 199.443Z" fill="#E6E7E8"/>
<path d="M224.28 199.835C227.096 199.835 229.378 197.056 229.378 193.627C229.378 190.198 227.096 187.418 224.28 187.418C221.465 187.418 219.182 190.198 219.182 193.627C219.182 197.056 221.465 199.835 224.28 199.835Z" fill="#E6E7E8"/>
<path d="M188.484 334.862L214.206 489.683H220.516L194.368 334.862H188.484Z" fill="#BBBBBB"/>
<path d="M28.3653 489.683L54.6296 334.862H59.0252L33.1026 489.683H28.3653Z" fill="#BBBBBB"/>
<path d="M218.351 315.914H28.2107V337.428H218.351V315.914Z" fill="#BBBBBB"/>
<path opacity="0.2" d="M218.351 315.914H28.2107V337.428H218.351V315.914Z" fill="black"/>
<path d="M90.2651 370.473L84.9413 384.467L86.4109 348.629C86.527 345.035 87.2673 341.512 88.5829 338.292C90.6067 333.417 94.4931 328.088 101.789 328.323H110.503L108.763 333.959L107.686 334.1C107.686 334.1 94.2998 331.824 91.5348 345.466C91.3176 346.565 91.1902 347.687 91.1545 348.817L90.2651 370.473Z" fill="#292433"/>
<path d="M133.551 389.208L129.329 473.334H108.963C108.284 473.344 107.637 473.679 107.16 474.267C106.684 474.855 106.417 475.647 106.417 476.473C106.417 477.299 106.684 478.092 107.16 478.68C107.637 479.267 108.284 479.603 108.963 479.613H155.059C155.746 479.6 156.402 479.259 156.884 478.663C157.366 478.067 157.637 477.263 157.637 476.426C157.628 475.597 157.354 474.804 156.872 474.217C156.391 473.631 155.74 473.297 155.059 473.287H134.15L138.778 389.302L133.551 389.208Z" fill="#292433"/>
<path d="M111.657 493.356C114.18 493.356 116.226 490.865 116.226 487.791C116.226 484.718 114.18 482.227 111.657 482.227C109.133 482.227 107.087 484.718 107.087 487.791C107.087 490.865 109.133 493.356 111.657 493.356Z" fill="#292433"/>
<path d="M39.4962 315.914C39.4962 315.914 37.1824 315.231 37.1308 310.491V255.234C37.1308 255.234 36.4863 249.457 42.8219 250.14H103.523C103.523 250.14 105.753 252.133 105.379 256.788C105.005 261.442 105.424 315.914 105.424 315.914H39.4962Z" fill="#292433"/>
<path d="M42.461 253.758H99.8233C100.189 253.757 100.551 253.844 100.888 254.013C101.226 254.183 101.533 254.432 101.792 254.746C102.05 255.06 102.256 255.434 102.396 255.845C102.536 256.256 102.608 256.696 102.608 257.141V308.466H43.112C42.202 308.466 41.3292 308.026 40.6851 307.243C40.0411 306.46 39.6784 305.398 39.6767 304.29V257.141C39.6784 256.243 39.9725 255.383 40.4945 254.748C41.0164 254.114 41.7237 253.758 42.461 253.758Z" fill="#E9E9E9"/>
<path d="M108.627 364.24C108.627 364.24 104.805 361.792 105.611 356.658L111.412 293.262C111.412 293.262 114.428 286.159 120.055 285.915H183.166C183.166 285.915 192.834 287.14 191.41 299.62L185.609 359.35C185.609 359.35 183.398 365.959 179.976 366.933C179.976 366.933 185.203 369.876 184.803 375.009V389.208C184.803 389.208 184.404 391.414 180.182 390.927L84.3033 390.998C84.3033 390.998 85.3796 371.752 90.2651 368.322C90.2651 368.322 96.4331 364.57 108.627 364.24Z" fill="#292433"/>
<path d="M407.775 70.7901L411.849 68.2156L422.664 67.2502C422.664 67.2502 426.054 66.9912 425.39 63.6082C425.208 62.6995 425.23 61.7479 425.454 60.8532C425.707 59.8083 425.755 58.7055 425.594 57.6339C425.433 56.5623 425.067 55.5519 424.526 54.6839C424.306 54.2923 424.128 53.8675 423.998 53.4202C423.572 51.9525 421.968 48.5303 416.502 50.9007C413.627 52.5027 411.304 55.2796 409.934 58.7497L406.183 62.1719L407.775 70.7901Z" fill="#FFBFA6"/>
<path d="M425.706 72.3128C425.732 70.4138 425.982 68.5293 426.447 66.7164C426.741 65.8009 426.836 64.8084 426.723 63.8349C426.611 62.8614 426.293 61.9399 425.802 61.1594C425.683 60.967 425.549 60.7884 425.403 60.6256C424.903 60.0928 424.515 59.4224 424.271 58.6703C424.026 57.9181 423.933 57.1058 423.998 56.3008C424.23 53.8049 424.842 50.8065 426.408 50.1237C426.408 50.1237 427.478 44.6294 430.43 46.0736C430.75 45.7969 431.114 45.6071 431.499 45.5172C431.884 45.4273 432.281 45.4393 432.662 45.5525C433.043 45.6657 433.399 45.8773 433.707 46.1731C434.015 46.4689 434.266 46.8418 434.445 47.2666C434.445 47.2666 436.862 46.3405 437.127 50.1237C437.127 50.1237 441.548 49.9431 439.273 55.6808C438.262 58.7575 437.035 61.7223 435.606 64.5423C434.651 66.2166 434.08 68.1696 433.949 70.2014L433.646 75.1227L425.706 72.3128Z" fill="#FFBFA6"/>
<path d="M268.842 244.763C268.842 244.763 296.963 215.887 306.225 184.326C307.359 180.456 308.564 176.618 309.95 172.858L321.919 140.332C321.919 140.332 325.934 78.6548 406.738 59.8878L410.759 78.8981C410.759 78.8981 351.657 88.6308 346.836 144.421C347.722 143.637 348.747 143.117 349.829 142.904C350.91 142.691 352.018 142.792 353.062 143.197L370.715 149.602C371.35 149.819 371.943 150.187 372.46 150.686C372.977 151.184 373.407 151.803 373.725 152.506C374.129 153.398 374.286 154.425 374.17 155.434C374.17 155.434 406.338 150.559 416.515 99.0543L421.871 70.17C421.871 70.17 433.666 74.4163 437.146 74.746C437.146 74.746 433.923 99.8627 434.465 106.071C434.465 106.071 435.27 123.779 425.893 137.609C425.893 137.609 421.065 145.073 419.447 150.049C419.447 150.049 417.578 160.944 408.806 173.557C407.601 175.292 406.415 177.058 405.281 178.871C400.755 185.936 395.8 192.576 390.457 198.737C389.484 199.875 388.491 201.005 387.479 202.104C383.799 206.091 364.476 229.12 356.736 280.68C356.736 280.68 343.201 280.39 335.151 270.845C332.522 267.664 329.471 265.045 326.127 263.098C321.699 260.61 316.008 258.978 310.917 262.4C310.917 262.4 306.141 265.838 298.542 261.764C295.708 260.205 292.662 259.298 289.557 259.087C288.913 259.087 288.268 259.04 287.624 259.048C283.75 259.122 279.94 257.849 276.639 255.379C273.339 252.908 270.686 249.343 268.991 245.101L268.842 244.763Z" fill="#3E3044"/>
<path d="M385.62 139.659C393.203 137.822 397.612 125.693 395.468 112.569C393.324 99.4439 385.44 90.2933 377.857 92.1301C370.274 93.967 365.864 106.096 368.008 119.22C370.152 132.345 378.037 141.496 385.62 139.659Z" fill="#FFBFA6"/>
<path d="M361.814 130.246C359.095 125.639 353.017 113.85 355.543 104.258C355.543 104.258 352.321 94.8394 359.694 90.75C359.694 90.75 375.375 79.3297 383.683 83.733C383.683 83.733 390.586 86.7313 390.56 91.009C390.544 91.747 390.633 92.4827 390.824 93.1832C390.904 93.4588 391.01 93.7222 391.14 93.9681C391.418 94.4189 391.588 94.9544 391.631 95.5155C391.674 96.0765 391.589 96.6412 391.385 97.147C390.554 99.0072 388.059 100.867 380.866 99.0543L381.737 109.007C381.737 109.007 383.148 113.418 376.851 115.867C376.851 115.867 373.474 116.997 370.735 128.661C370.43 129.985 369.754 131.138 368.824 131.918C367.893 132.699 366.768 133.057 365.643 132.931H365.52C364.784 132.821 364.074 132.525 363.436 132.063C362.797 131.601 362.245 130.982 361.814 130.246Z" fill="#292433"/>
<path d="M330.336 473.443L346.662 480.978L338.863 499.526C338.863 499.526 350.877 505.161 350.277 513.01L320.449 499.243L330.336 473.443Z" fill="#292433"/>
<path d="M350.243 513.023L320.416 499.255L319.137 503.365L348.963 517.133L350.243 513.023Z" fill="#292433"/>
<path d="M378.372 138.205L376.439 141.769C374.994 140.415 373.812 138.689 372.977 136.715C372.143 134.741 371.677 132.567 371.611 130.348C371.611 130.348 375.401 136.855 378.372 138.205Z" fill="#F7A48B"/>
</svg>