<svg width="256" height="384" viewBox="0 0 256 384" fill="none" xmlns="http://www.w3.org/2000/svg">
<rect width="256" height="384" rx="24" fill="url(#paint0_linear_139_7)" fill-opacity="0.78"/>
<path d="M67.0473 206.184H63.1588C63.0878 205.681 62.9428 205.234 62.7238 204.843C62.5048 204.446 62.2237 204.109 61.8804 203.831C61.5371 203.553 61.1406 203.34 60.6908 203.192C60.2469 203.044 59.7645 202.97 59.2437 202.97C58.3026 202.97 57.4829 203.204 56.7845 203.671C56.0861 204.133 55.5446 204.808 55.1599 205.695C54.7752 206.577 54.5828 207.648 54.5828 208.909C54.5828 210.205 54.7752 211.294 55.1599 212.176C55.5505 213.058 56.095 213.724 56.7934 214.174C57.4918 214.623 58.2997 214.848 59.2171 214.848C59.732 214.848 60.2084 214.78 60.6464 214.644C61.0903 214.508 61.4839 214.31 61.8271 214.049C62.1704 213.783 62.4545 213.46 62.6794 213.082C62.9102 212.703 63.07 212.271 63.1588 211.786L67.0473 211.803C66.9467 212.638 66.6952 213.443 66.2927 214.218C65.8962 214.987 65.3605 215.677 64.6858 216.287C64.017 216.89 63.218 217.37 62.2888 217.725C61.3655 218.074 60.3209 218.249 59.1549 218.249C57.5332 218.249 56.0832 217.882 54.8048 217.148C53.5323 216.414 52.5261 215.351 51.7863 213.961C51.0524 212.57 50.6855 210.886 50.6855 208.909C50.6855 206.926 51.0583 205.24 51.8041 203.849C52.5498 202.458 53.5619 201.398 54.8403 200.67C56.1187 199.937 57.5569 199.57 59.1549 199.57C60.2084 199.57 61.185 199.718 62.0846 200.013C62.9901 200.309 63.7921 200.741 64.4905 201.31C65.1889 201.872 65.7571 202.561 66.195 203.378C66.6389 204.195 66.923 205.13 67.0473 206.184ZM86.512 208.909C86.512 210.892 86.1362 212.579 85.3845 213.969C84.6388 215.36 83.6208 216.423 82.3305 217.157C81.0462 217.885 79.6021 218.249 77.9981 218.249C76.3824 218.249 74.9323 217.882 73.648 217.148C72.3637 216.414 71.3486 215.351 70.6029 213.961C69.8572 212.57 69.4843 210.886 69.4843 208.909C69.4843 206.926 69.8572 205.24 70.6029 203.849C71.3486 202.458 72.3637 201.398 73.648 200.67C74.9323 199.937 76.3824 199.57 77.9981 199.57C79.6021 199.57 81.0462 199.937 82.3305 200.67C83.6208 201.398 84.6388 202.458 85.3845 203.849C86.1362 205.24 86.512 206.926 86.512 208.909ZM82.6146 208.909C82.6146 207.625 82.4223 206.542 82.0376 205.66C81.6588 204.778 81.1231 204.109 80.4307 203.653C79.7382 203.198 78.9273 202.97 77.9981 202.97C77.0689 202.97 76.2581 203.198 75.5656 203.653C74.8731 204.109 74.3345 204.778 73.9498 205.66C73.5711 206.542 73.3817 207.625 73.3817 208.909C73.3817 210.193 73.5711 211.277 73.9498 212.158C74.3345 213.04 74.8731 213.709 75.5656 214.165C76.2581 214.621 77.0689 214.848 77.9981 214.848C78.9273 214.848 79.7382 214.621 80.4307 214.165C81.1231 213.709 81.6588 213.04 82.0376 212.158C82.4223 211.277 82.6146 210.193 82.6146 208.909ZM89.3596 218V199.818H93.2037V214.831H100.998V218H89.3596ZM103.544 218V199.818H107.388V214.831H115.183V218H103.544ZM117.729 218V199.818H129.98V202.988H121.573V207.32H129.35V210.489H121.573V214.831H130.016V218H117.729ZM122.576 198.06L119.868 194.021H123.357L125.248 198.06H122.576ZM145.092 205.695C144.968 205.263 144.794 204.882 144.569 204.55C144.344 204.213 144.069 203.929 143.743 203.698C143.423 203.461 143.056 203.281 142.642 203.156C142.234 203.032 141.781 202.97 141.284 202.97C140.355 202.97 139.538 203.201 138.834 203.662C138.135 204.124 137.591 204.796 137.2 205.678C136.809 206.554 136.614 207.625 136.614 208.891C136.614 210.158 136.806 211.235 137.191 212.123C137.576 213.011 138.12 213.688 138.825 214.156C139.529 214.618 140.361 214.848 141.319 214.848C142.189 214.848 142.932 214.694 143.548 214.387C144.169 214.073 144.643 213.632 144.968 213.064C145.3 212.496 145.465 211.824 145.465 211.049L146.247 211.164H141.559V208.27H149.167V210.56C149.167 212.158 148.83 213.531 148.155 214.68C147.481 215.822 146.551 216.704 145.368 217.325C144.184 217.941 142.829 218.249 141.302 218.249C139.597 218.249 138.1 217.873 136.809 217.121C135.519 216.364 134.513 215.289 133.791 213.898C133.075 212.502 132.717 210.844 132.717 208.927C132.717 207.453 132.93 206.139 133.356 204.985C133.788 203.825 134.392 202.843 135.167 202.038C135.942 201.233 136.845 200.62 137.875 200.2C138.905 199.78 140.02 199.57 141.222 199.57C142.252 199.57 143.21 199.721 144.098 200.022C144.986 200.318 145.773 200.739 146.46 201.283C147.152 201.828 147.717 202.476 148.155 203.227C148.593 203.973 148.874 204.796 148.999 205.695H145.092ZM152.055 218V199.818H164.306V202.988H155.899V207.32H163.676V210.489H155.899V214.831H164.342V218H152.055ZM173.149 218V199.818H185.4V202.988H176.993V207.32H184.77V210.489H176.993V214.831H185.436V218H173.149ZM187.764 202.988V199.818H202.696V202.988H197.13V218H193.33V202.988H187.764ZM88.9323 248V229.818H92.7764V244.831H100.571V248H88.9323ZM99.7322 229.818H104.038L108.184 237.648H108.361L112.507 229.818H116.813L110.181 241.572V248H106.364V241.572L99.7322 229.818ZM133.856 236.184H129.968C129.897 235.681 129.752 235.234 129.533 234.843C129.314 234.446 129.033 234.109 128.689 233.831C128.346 233.553 127.95 233.34 127.5 233.192C127.056 233.044 126.574 232.97 126.053 232.97C125.112 232.97 124.292 233.204 123.594 233.671C122.895 234.133 122.354 234.808 121.969 235.695C121.584 236.577 121.392 237.648 121.392 238.909C121.392 240.205 121.584 241.294 121.969 242.176C122.36 243.058 122.904 243.724 123.602 244.174C124.301 244.623 125.109 244.848 126.026 244.848C126.541 244.848 127.018 244.78 127.455 244.644C127.899 244.508 128.293 244.31 128.636 244.049C128.98 243.783 129.264 243.46 129.489 243.082C129.719 242.703 129.879 242.271 129.968 241.786L133.856 241.803C133.756 242.638 133.504 243.443 133.102 244.218C132.705 244.987 132.17 245.677 131.495 246.287C130.826 246.89 130.027 247.37 129.098 247.725C128.175 248.074 127.13 248.249 125.964 248.249C124.342 248.249 122.892 247.882 121.614 247.148C120.341 246.414 119.335 245.351 118.595 243.961C117.861 242.57 117.495 240.886 117.495 238.909C117.495 236.926 117.867 235.24 118.613 233.849C119.359 232.458 120.371 231.398 121.649 230.67C122.928 229.937 124.366 229.57 125.964 229.57C127.018 229.57 127.994 229.718 128.894 230.013C129.799 230.309 130.601 230.741 131.3 231.31C131.998 231.872 132.566 232.561 133.004 233.378C133.448 234.195 133.732 235.13 133.856 236.184ZM136.613 248V229.818H148.864V232.988H140.457V237.32H148.234V240.489H140.457V244.831H148.9V248H136.613ZM141.407 228.06L143.289 224.021H146.787L144.079 228.06H141.407ZM151.921 248V229.818H164.172V232.988H155.765V237.32H163.542V240.489H155.765V244.831H164.208V248H151.921Z" fill="white"/>
<path d="M167 62.1758C167.002 61.1328 166.719 60.108 166.182 59.2056C165.644 58.3031 164.87 57.5552 163.939 57.038L130.665 37.8309C129.706 37.2868 128.616 37 127.505 37C126.395 37 125.305 37.2868 124.346 37.8309L91.022 57.038C90.1011 57.5694 89.3383 58.3248 88.8085 59.2298C88.2786 60.1348 88 61.1584 88 62.1999C88 63.2413 88.2786 64.2649 88.8085 65.1699C89.3383 66.0749 90.1011 66.8303 91.022 67.3617L100.501 72.7397V86.2326C100.506 87.2872 100.791 88.3225 101.327 89.2391C101.863 90.1558 102.633 90.9228 103.562 91.4666L124.543 103.231C125.48 103.735 126.533 104 127.604 104C128.675 104 129.728 103.735 130.665 103.231L151.646 91.4666C152.575 90.9228 153.345 90.1558 153.881 89.2391C154.417 88.3225 154.702 87.2872 154.707 86.2326V72.5957L160.829 69.0904V82.1511H167V62.1758ZM148.586 86.1846L127.505 97.9969L106.672 86.2326V76.293L124.346 86.5207C125.308 87.0555 126.397 87.3368 127.505 87.3368C128.614 87.3368 129.703 87.0555 130.665 86.5207L148.536 76.149L148.586 86.1846ZM127.505 81.3349L94.1816 62.1278L127.505 42.8728L160.829 62.0798L127.505 81.3349Z" fill="#EDEDED"/>
<path d="M167 62.1758C167.002 61.1328 166.719 60.108 166.182 59.2056C165.644 58.3031 164.87 57.5552 163.939 57.038L130.665 37.8309C129.706 37.2868 128.616 37 127.505 37C126.395 37 125.305 37.2868 124.346 37.8309L91.022 57.038C90.1011 57.5694 89.3383 58.3248 88.8085 59.2298C88.2786 60.1348 88 61.1584 88 62.1999C88 63.2413 88.2786 64.2649 88.8085 65.1699C89.3383 66.0749 90.1011 66.8303 91.022 67.3617L100.501 72.7397V86.2326C100.506 87.2872 100.791 88.3225 101.327 89.2391C101.863 90.1558 102.633 90.9228 103.562 91.4666L124.543 103.231C125.48 103.735 126.533 104 127.604 104C128.675 104 129.728 103.735 130.665 103.231L151.646 91.4666C152.575 90.9228 153.345 90.1558 153.881 89.2391C154.417 88.3225 154.702 87.2872 154.707 86.2326V72.5957L160.829 69.0904V82.1511H167V62.1758ZM148.586 86.1846L127.505 97.9969L106.672 86.2326V76.293L124.346 86.5207C125.308 87.0555 126.397 87.3368 127.505 87.3368C128.614 87.3368 129.703 87.0555 130.665 86.5207L148.536 76.149L148.586 86.1846ZM127.505 81.3349L94.1816 62.1278L127.505 42.8728L160.829 62.0798L127.505 81.3349Z" fill="#EDEDED"/>
<defs>
<linearGradient id="paint0_linear_139_7" x1="-103.5" y1="-239" x2="212" y2="341" gradientUnits="userSpaceOnUse">
<stop stop-color="#010101" stop-opacity="0"/>
<stop offset="1"/>
</linearGradient>
</defs>
</svg>
