<svg width="256" height="384" viewBox="0 0 256 384" fill="none" xmlns="http://www.w3.org/2000/svg">
<rect width="256" height="384" rx="24" fill="url(#paint0_linear_138_4)" fill-opacity="0.78"/>
<path d="M52.9225 213V194.818H65.174V197.988H56.7666V202.32H64.5436V205.489H56.7666V209.831H65.2095V213H52.9225ZM57.7166 193.06L59.5987 189.021H63.0965L60.3888 193.06H57.7166ZM74.6755 213H68.2302V194.818H74.7287C76.5576 194.818 78.1319 195.182 79.4517 195.91C80.7716 196.632 81.7866 197.671 82.4968 199.026C83.213 200.382 83.5711 202.003 83.5711 203.891C83.5711 205.785 83.213 207.413 82.4968 208.774C81.7866 210.135 80.7657 211.18 79.434 211.908C78.1082 212.636 76.5221 213 74.6755 213ZM72.0743 209.706H74.5157C75.652 209.706 76.6079 209.505 77.3832 209.103C78.1645 208.694 78.7504 208.064 79.141 207.212C79.5376 206.353 79.7358 205.247 79.7358 203.891C79.7358 202.548 79.5376 201.45 79.141 200.598C78.7504 199.745 78.1674 199.118 77.3921 198.716C76.6168 198.313 75.6609 198.112 74.5245 198.112H72.0743V209.706ZM97.6491 194.818H101.493V206.626C101.493 207.951 101.177 209.112 100.543 210.106C99.9159 211.1 99.037 211.875 97.9066 212.432C96.7761 212.982 95.4592 213.257 93.9559 213.257C92.4467 213.257 91.1268 212.982 89.9964 212.432C88.866 211.875 87.9871 211.1 87.3597 210.106C86.7323 209.112 86.4186 207.951 86.4186 206.626V194.818H90.2627V206.297C90.2627 206.99 90.4137 207.605 90.7155 208.144C91.0233 208.682 91.4553 209.106 92.0117 209.413C92.568 209.721 93.2161 209.875 93.9559 209.875C94.7017 209.875 95.3497 209.721 95.9002 209.413C96.4565 209.106 96.8856 208.682 97.1875 208.144C97.4952 207.605 97.6491 206.99 97.6491 206.297V194.818ZM120.698 201.184H116.81C116.739 200.681 116.594 200.234 116.375 199.843C116.156 199.446 115.875 199.109 115.531 198.831C115.188 198.553 114.791 198.34 114.342 198.192C113.898 198.044 113.415 197.97 112.895 197.97C111.954 197.97 111.134 198.204 110.435 198.671C109.737 199.133 109.195 199.808 108.811 200.695C108.426 201.577 108.234 202.648 108.234 203.909C108.234 205.205 108.426 206.294 108.811 207.176C109.201 208.058 109.746 208.724 110.444 209.174C111.143 209.623 111.951 209.848 112.868 209.848C113.383 209.848 113.859 209.78 114.297 209.644C114.741 209.508 115.135 209.31 115.478 209.049C115.821 208.783 116.105 208.46 116.33 208.082C116.561 207.703 116.721 207.271 116.81 206.786L120.698 206.803C120.598 207.638 120.346 208.443 119.944 209.218C119.547 209.987 119.011 210.677 118.337 211.287C117.668 211.89 116.869 212.37 115.94 212.725C115.016 213.074 113.972 213.249 112.806 213.249C111.184 213.249 109.734 212.882 108.456 212.148C107.183 211.414 106.177 210.351 105.437 208.961C104.703 207.57 104.336 205.886 104.336 203.909C104.336 201.926 104.709 200.24 105.455 198.849C106.201 197.458 107.213 196.398 108.491 195.67C109.77 194.937 111.208 194.57 112.806 194.57C113.859 194.57 114.836 194.718 115.735 195.013C116.641 195.309 117.443 195.741 118.141 196.31C118.84 196.872 119.408 197.561 119.846 198.378C120.29 199.195 120.574 200.13 120.698 201.184ZM126.247 213H122.128L128.404 194.818H133.358L139.626 213H135.506L130.952 198.973H130.81L126.247 213ZM125.989 205.853H135.72V208.854H125.989V205.853ZM138.9 197.988V194.818H153.833V197.988H148.266V213H144.466V197.988H138.9ZM160.136 194.818V213H156.292V194.818H160.136ZM180.007 203.909C180.007 205.892 179.631 207.579 178.879 208.969C178.133 210.36 177.115 211.423 175.825 212.157C174.541 212.885 173.097 213.249 171.493 213.249C169.877 213.249 168.427 212.882 167.143 212.148C165.858 211.414 164.843 210.351 164.098 208.961C163.352 207.57 162.979 205.886 162.979 203.909C162.979 201.926 163.352 200.24 164.098 198.849C164.843 197.458 165.858 196.398 167.143 195.67C168.427 194.937 169.877 194.57 171.493 194.57C173.097 194.57 174.541 194.937 175.825 195.67C177.115 196.398 178.133 197.458 178.879 198.849C179.631 200.24 180.007 201.926 180.007 203.909ZM176.109 203.909C176.109 202.625 175.917 201.542 175.532 200.66C175.153 199.778 174.618 199.109 173.925 198.653C173.233 198.198 172.422 197.97 171.493 197.97C170.564 197.97 169.753 198.198 169.06 198.653C168.368 199.109 167.829 199.778 167.444 200.66C167.066 201.542 166.876 202.625 166.876 203.909C166.876 205.193 167.066 206.277 167.444 207.158C167.829 208.04 168.368 208.709 169.06 209.165C169.753 209.621 170.564 209.848 171.493 209.848C172.422 209.848 173.233 209.621 173.925 209.165C174.618 208.709 175.153 208.04 175.532 207.158C175.917 206.277 176.109 205.193 176.109 203.909ZM198.062 194.818V213H194.742L186.831 201.556H186.698V213H182.854V194.818H186.228L194.076 206.253H194.236V194.818H198.062ZM21.6714 224.818V243H17.8273V224.818H21.6714ZM40.0419 224.818V243H36.7216L28.8114 231.556H28.6783V243H24.8342V224.818H28.2077L36.0558 236.253H36.2156V224.818H40.0419ZM42.5255 227.988V224.818H57.458V227.988H51.8916V243H48.0919V227.988H42.5255ZM59.9172 243V224.818H72.1686V227.988H63.7613V232.32H71.5383V235.489H63.7613V239.831H72.2041V243H59.9172ZM75.2248 243V224.818H82.3981C83.7712 224.818 84.9431 225.064 85.9137 225.555C86.8903 226.04 87.633 226.73 88.142 227.624C88.657 228.511 88.9144 229.556 88.9144 230.757C88.9144 231.965 88.654 233.004 88.1332 233.874C87.6123 234.738 86.8577 235.401 85.8693 235.862C84.8868 236.324 83.6972 236.555 82.3004 236.555H77.4975V233.465H81.679C82.4129 233.465 83.0225 233.365 83.5078 233.163C83.9931 232.962 84.3542 232.66 84.5909 232.258C84.8336 231.855 84.9549 231.355 84.9549 230.757C84.9549 230.154 84.8336 229.645 84.5909 229.23C84.3542 228.816 83.9902 228.502 83.4989 228.289C83.0136 228.07 82.401 227.961 81.6612 227.961H79.0689V243H75.2248ZM85.0437 234.726L89.5625 243H85.3189L80.8977 234.726H85.0437ZM106.839 224.818V243H103.518L95.6083 231.556H95.4751V243H91.631V224.818H95.0046L102.853 236.253H103.012V224.818H106.839ZM113.149 243H109.029L115.306 224.818H120.26L126.528 243H122.408L117.854 228.973H117.712L113.149 243ZM112.891 235.853H122.621V238.854H112.891V235.853ZM125.802 227.988V224.818H140.734V227.988H135.168V243H131.368V227.988H125.802ZM147.038 224.818V243H143.194V224.818H147.038ZM166.908 233.909C166.908 235.892 166.533 237.579 165.781 238.969C165.035 240.36 164.017 241.423 162.727 242.157C161.443 242.885 159.999 243.249 158.395 243.249C156.779 243.249 155.329 242.882 154.044 242.148C152.76 241.414 151.745 240.351 150.999 238.961C150.254 237.57 149.881 235.886 149.881 233.909C149.881 231.926 150.254 230.24 150.999 228.849C151.745 227.458 152.76 226.398 154.044 225.67C155.329 224.937 156.779 224.57 158.395 224.57C159.999 224.57 161.443 224.937 162.727 225.67C164.017 226.398 165.035 227.458 165.781 228.849C166.533 230.24 166.908 231.926 166.908 233.909ZM163.011 233.909C163.011 232.625 162.819 231.542 162.434 230.66C162.055 229.778 161.52 229.109 160.827 228.653C160.135 228.198 159.324 227.97 158.395 227.97C157.465 227.97 156.655 228.198 155.962 228.653C155.27 229.109 154.731 229.778 154.346 230.66C153.968 231.542 153.778 232.625 153.778 233.909C153.778 235.193 153.968 236.277 154.346 237.158C154.731 238.04 155.27 238.709 155.962 239.165C156.655 239.621 157.465 239.848 158.395 239.848C159.324 239.848 160.135 239.621 160.827 239.165C161.52 238.709 162.055 238.04 162.434 237.158C162.819 236.277 163.011 235.193 163.011 233.909ZM184.964 224.818V243H181.643L173.733 231.556H173.6V243H169.756V224.818H173.13L180.978 236.253H181.137V224.818H184.964ZM191.274 243H187.154L193.431 224.818H198.385L204.653 243H200.533L195.979 228.973H195.837L191.274 243ZM191.016 235.853H200.746V238.854H191.016V235.853ZM206.841 243V224.818H210.685V239.831H218.48V243H206.841ZM221.026 243V224.818H233.277V227.988H224.87V232.32H232.647V235.489H224.87V239.831H233.312V243H221.026Z" fill="white"/>
<path d="M160.376 49.252L131.453 40.4288C130.52 40.1444 129.526 40 128.5 40C127.474 40 126.48 40.1444 125.547 40.4288L96.623 49.252C96.1166 49.4078 95.7896 49.766 95.7896 50.1675C95.7896 50.5688 96.1166 50.9271 96.6233 51.083L110.012 55.167V66.4797C110.015 72.3288 112.004 77.9471 115.611 82.2972C117.345 84.3852 119.34 86.0434 121.541 87.2239C123.877 88.4784 126.298 89.1142 128.737 89.1142C131.176 89.1142 133.597 88.4784 135.934 87.2239C139.244 85.4452 142.092 82.5883 144.17 78.9637C146.323 75.2015 147.461 70.8843 147.462 66.4797V55.0226L154.09 53.0005V62.4036C153.182 62.5185 152.478 63.2964 152.478 64.2347C152.478 65.0512 153.012 65.7587 153.777 65.9941L152.372 75.2687C152.337 75.4996 152.404 75.7328 152.556 75.9112C152.709 76.0876 152.931 76.1898 153.164 76.1898H158.477C158.711 76.1898 158.932 76.0875 159.085 75.9101C159.237 75.7338 159.304 75.4995 159.27 75.2676L157.864 65.9941C158.629 65.7587 159.164 65.0513 159.164 64.2347C159.164 63.2964 158.459 62.5185 157.551 62.4036V51.9449L160.377 51.0829C160.883 50.927 161.211 50.5677 161.211 50.1673C161.21 49.7671 160.883 49.4077 160.376 49.252ZM128.737 83.6334C127.212 83.6334 125.662 83.2171 124.131 82.3949C121.759 81.128 119.603 78.9432 118.061 76.241C117.35 74.9991 116.772 73.6479 116.343 72.2207C125.26 70.6422 130.773 64.9875 133.882 60.3599C135.383 63.4032 137.934 67.2086 141.826 68.9509C141.369 72.6106 139.888 76.1011 137.646 78.7964C136.384 80.3204 134.896 81.5646 133.343 82.3959C131.811 83.2171 130.261 83.6334 128.737 83.6334Z" fill="#EDEDED"/>
<path d="M145.754 86.0298L145.607 85.9376L129.415 100.187L113.224 85.9375L113.077 86.0296C107.678 89.4041 101.941 98.5763 101.941 108.929V109.069L102.065 109.135C102.175 109.194 113.328 115 129.415 115C145.502 115 156.655 109.194 156.766 109.135L156.89 109.069V108.929C156.89 98.5763 151.152 89.4041 145.754 86.0298Z" fill="#EDEDED"/>
<defs>
<linearGradient id="paint0_linear_138_4" x1="43.5" y1="84.5" x2="285.5" y2="421.5" gradientUnits="userSpaceOnUse">
<stop stop-color="#981953"/>
<stop offset="1" stop-color="#981953" stop-opacity="0.47"/>
</linearGradient>
</defs>
</svg>
