<svg width="693" height="717" viewBox="0 0 693 717" fill="none" xmlns="http://www.w3.org/2000/svg">
<path d="M118.848 337.359C142.632 276.643 10 278.5 10 278.5L10 205.5C94.275 221.814 228.356 262.126 198.891 337.008C169.427 411.891 94.0115 460.723 10.998 463.094C10.998 439.5 7.34366 389.7 10.9979 404.5C14.6522 419.3 95.0651 398.074 118.848 337.359Z" fill="#D9D9D9" fill-opacity="0.16"/>
<path d="M0 804C130.641 673.169 202.705 588.559 348.863 605.687L454 477C248.452 528.908 138.726 566.001 0 714.687V804Z" fill="#D9D9D9" fill-opacity="0.11"/>
<path d="M691.525 131.111C572.389 162.127 554.789 48.0801 529.411 19.4343C504.032 -9.21143 454.84 -3.59294 412.83 19.4343C370.82 42.4616 688.207 272.656 691.525 218.885C694.843 165.115 691.525 131.111 691.525 131.111Z" fill="#D9D9D9" fill-opacity="0.15"/>
<ellipse cx="315" cy="425" rx="37" ry="38" fill="#D9D9D9" fill-opacity="0.25"/>
</svg>
