<svg width="216" height="66" viewBox="0 0 216 66" fill="none" xmlns="http://www.w3.org/2000/svg">
<path d="M79.1086 57.74V60H71.4286V46.06H78.7086V48.24H73.9286V51.5H77.7286V53.62H73.9286V57.74H79.1086ZM84.7458 60.28C83.9458 60.28 83.2458 60.0633 82.6458 59.63C82.0524 59.1967 81.5924 58.5867 81.2658 57.8C80.9458 57.0067 80.7858 56.0867 80.7858 55.04C80.7858 53.3733 81.1224 52.0833 81.7958 51.17C82.4758 50.2567 83.4724 49.8 84.7858 49.8C85.4724 49.8 86.0491 49.97 86.5158 50.31C86.9824 50.65 87.2858 51.1333 87.4258 51.76L87.2458 50.3V44.8H89.6058V60H87.4258V57.96C87.2391 58.6733 86.9158 59.24 86.4558 59.66C85.9958 60.0733 85.4258 60.28 84.7458 60.28ZM85.3258 58.3C85.6591 58.3 85.9658 58.1867 86.2458 57.96C86.5324 57.7333 86.7591 57.38 86.9258 56.9C87.0991 56.4133 87.1858 55.8067 87.1858 55.08C87.1858 54.0267 87.0358 53.22 86.7358 52.66C86.4358 52.1 85.9858 51.82 85.3858 51.82C85.0391 51.82 84.7124 51.9233 84.4058 52.13C84.1058 52.3367 83.8558 52.68 83.6558 53.16C83.4624 53.64 83.3658 54.2667 83.3658 55.04C83.3658 55.7533 83.4491 56.3533 83.6158 56.84C83.7891 57.3267 84.0224 57.6933 84.3158 57.94C84.6158 58.18 84.9524 58.3 85.3258 58.3ZM100.536 50.04V60H98.2763L98.2263 58.71C97.9329 59.17 97.5696 59.54 97.1363 59.82C96.7096 60.1 96.1629 60.24 95.4963 60.24C94.5096 60.24 93.7729 59.9267 93.2863 59.3C92.7996 58.6733 92.5563 57.78 92.5563 56.62V50.04H95.0563V56.4C95.0563 56.98 95.1596 57.4367 95.3663 57.77C95.5796 58.0967 95.9163 58.26 96.3763 58.26C96.6896 58.26 96.9696 58.1833 97.2163 58.03C97.4696 57.87 97.6696 57.65 97.8163 57.37C97.9629 57.0833 98.0363 56.76 98.0363 56.4V50.04H100.536ZM107.416 60.24C106.396 60.24 105.546 60.01 104.866 59.55C104.186 59.0833 103.682 58.46 103.356 57.68C103.036 56.9 102.876 56.0267 102.876 55.06C102.876 54.1133 103.056 53.24 103.416 52.44C103.776 51.64 104.309 51 105.016 50.52C105.722 50.04 106.569 49.8 107.556 49.8C108.169 49.8 108.702 49.8667 109.156 50C109.616 50.1267 110.056 50.36 110.476 50.7L109.656 52.82C109.462 52.5333 109.176 52.3067 108.796 52.14C108.422 51.9667 108.056 51.88 107.696 51.88C106.242 51.88 105.516 52.9333 105.516 55.04C105.516 56.14 105.692 56.9433 106.046 57.45C106.406 57.95 106.956 58.2 107.696 58.2C108.142 58.2 108.549 58.1167 108.916 57.95C109.289 57.7833 109.582 57.58 109.796 57.34L110.556 59.12C110.409 59.28 110.186 59.4467 109.886 59.62C109.592 59.7867 109.232 59.93 108.806 60.05C108.379 60.1767 107.916 60.24 107.416 60.24ZM114.519 60.28C113.926 60.28 113.426 60.1467 113.019 59.88C112.612 59.6133 112.306 59.2533 112.099 58.8C111.899 58.3467 111.799 57.84 111.799 57.28C111.799 56.7933 111.959 56.31 112.279 55.83C112.606 55.3433 113.182 54.93 114.009 54.59C114.836 54.25 115.952 54.08 117.359 54.08V53.62C117.359 53.0733 117.226 52.65 116.959 52.35C116.699 52.05 116.239 51.9 115.579 51.9C115.059 51.9 114.549 51.99 114.049 52.17C113.556 52.3433 113.192 52.56 112.959 52.82L112.159 50.9C112.612 50.5933 113.176 50.3333 113.849 50.12C114.522 49.9067 115.239 49.8 115.999 49.8C116.952 49.8 117.706 49.9467 118.259 50.24C118.819 50.5333 119.212 50.9467 119.439 51.48C119.666 52.0133 119.779 52.6733 119.779 53.46V60H117.639L117.459 58.58C117.106 59.1533 116.686 59.58 116.199 59.86C115.719 60.14 115.159 60.28 114.519 60.28ZM115.579 58.36C115.886 58.36 116.209 58.2367 116.549 57.99C116.889 57.7433 117.159 57.4333 117.359 57.06V55.64C117.266 55.6267 117.106 55.62 116.879 55.62C116.206 55.62 115.602 55.7333 115.069 55.96C114.542 56.18 114.279 56.54 114.279 57.04C114.279 57.5133 114.382 57.8533 114.589 58.06C114.802 58.26 115.132 58.36 115.579 58.36ZM125.74 60.3C125 60.3 124.42 60.1733 124 59.92C123.58 59.6667 123.284 59.2867 123.11 58.78C122.944 58.2667 122.86 57.5933 122.86 56.76V52.14H121.56V50.04H122.96L123.1 47.94L125.28 47V50.04H127.74V52.14H125.28V56.7C125.28 57.26 125.357 57.6567 125.51 57.89C125.664 58.1233 125.894 58.24 126.2 58.24C126.474 58.24 126.77 58.17 127.09 58.03C127.417 57.8833 127.687 57.72 127.9 57.54L128.38 59.56C128.087 59.7667 127.664 59.94 127.11 60.08C126.564 60.2267 126.107 60.3 125.74 60.3ZM130.154 45.76H132.954V48.42H130.154V45.76ZM130.254 50.04H132.854V60H130.254V50.04ZM139.799 60.2C138.826 60.2 137.996 59.9933 137.309 59.58C136.623 59.1667 136.099 58.5733 135.739 57.8C135.379 57.02 135.199 56.0867 135.199 55C135.199 53.9133 135.383 52.98 135.749 52.2C136.123 51.42 136.659 50.8267 137.359 50.42C138.066 50.0067 138.906 49.8 139.879 49.8C140.846 49.8 141.666 50.0133 142.339 50.44C143.019 50.86 143.533 51.46 143.879 52.24C144.226 53.02 144.399 53.94 144.399 55C144.399 56.0533 144.219 56.9733 143.859 57.76C143.499 58.54 142.973 59.1433 142.279 59.57C141.593 59.99 140.766 60.2 139.799 60.2ZM139.839 58.2C140.459 58.2 140.929 57.93 141.249 57.39C141.576 56.85 141.739 56.0533 141.739 55C141.739 53.94 141.576 53.14 141.249 52.6C140.929 52.0533 140.459 51.78 139.839 51.78C139.186 51.78 138.693 52.0367 138.359 52.55C138.026 53.0633 137.859 53.88 137.859 55C137.859 56.12 138.026 56.9333 138.359 57.44C138.693 57.9467 139.186 58.2 139.839 58.2ZM152.018 49.8C153.012 49.8 153.758 50.1167 154.258 50.75C154.765 51.3767 155.018 52.2667 155.018 53.42V60H152.458V53.64C152.458 53.0733 152.338 52.6233 152.098 52.29C151.858 51.95 151.505 51.78 151.038 51.78C150.725 51.78 150.432 51.86 150.158 52.02C149.892 52.18 149.678 52.4033 149.518 52.69C149.358 52.97 149.278 53.2867 149.278 53.64V60H146.718V50.04H149.038L149.088 51.35C149.775 50.3167 150.752 49.8 152.018 49.8Z" fill="white"/>
<path d="M30.4971 47.791L21.8992 23.8998C22.3349 23.5538 22.5196 22.994 22.536 22.6318V10.9081C22.536 10.6446 22.3191 10.4471 22.0668 10.4471H18.731V4.40438C18.731 2.26343 17.2557 2.01676 17.1051 2H13.8876C13.2507 2.08262 12.0441 2.67533 12.0441 4.40438C12.0441 5.70476 12.0441 8.86649 12.0441 10.4471H8.6925C8.42437 10.4471 8.22327 10.6608 8.22327 10.9081V11.3691V22.6318C8.22327 22.6647 8.22327 22.7144 8.24033 22.7467C8.25678 22.7797 8.44143 23.4879 9.01121 23.916L0.480346 47.8401C0.463893 47.9227 0.0275691 49.817 1.35178 51.9723L2.50779 54.2455L2.07208 56.3691C1.85452 57.4731 1.88743 57.6204 2.03856 57.818C2.12265 57.9335 2.27318 58 2.4243 58C2.84356 58 2.97763 57.6049 3.17873 56.9636L3.5145 55.9429C3.58154 55.9584 3.63151 55.9758 3.7156 55.9758C3.89964 55.9596 4.06783 55.8435 4.13486 55.6794L15.1124 27.3094H15.8498H15.9333L26.8944 55.6477C26.9602 55.8279 27.129 55.9435 27.3137 55.9435C27.4642 55.9596 27.6318 55.8782 27.7159 55.7621L28.168 57.0133C28.218 57.1457 28.3185 57.2606 28.4532 57.2941C28.4867 57.3103 28.8384 57.4252 29.2406 57.4252C29.9279 57.4252 30.4142 57.0804 30.5648 56.4709C30.5812 56.3877 30.5812 56.2895 30.5489 56.2075L29.3253 52.5842L29.6263 51.9926C30.9993 49.817 30.5306 47.9227 30.4971 47.791Z" fill="#B9D0E4" fill-opacity="0.3"/>
<path d="M99.144 43.396C98.028 43.396 96.972 43.264 95.976 43C94.992 42.736 94.128 42.394 93.384 41.974C92.64 41.554 92.052 41.116 91.62 40.66L93.456 36.88C93.732 37.24 94.152 37.624 94.716 38.032C95.28 38.44 95.922 38.788 96.642 39.076C97.374 39.364 98.1 39.508 98.82 39.508C99.768 39.508 100.56 39.25 101.196 38.734C101.844 38.206 102.168 37.468 102.168 36.52C102.168 35.908 102.018 35.38 101.718 34.936C101.43 34.48 101.04 34.078 100.548 33.73C100.068 33.37 99.324 32.884 98.316 32.272C96.936 31.432 95.856 30.718 95.076 30.13C94.296 29.53 93.618 28.75 93.042 27.79C92.478 26.818 92.196 25.648 92.196 24.28C92.196 22.948 92.478 21.772 93.042 20.752C93.618 19.72 94.464 18.916 95.58 18.34C96.696 17.764 98.04 17.476 99.612 17.476C102.168 17.476 104.304 18.256 106.02 19.816L104.004 23.488C103.8 23.2 103.494 22.888 103.086 22.552C102.678 22.204 102.186 21.91 101.61 21.67C101.034 21.418 100.428 21.292 99.792 21.292C98.868 21.292 98.148 21.562 97.632 22.102C97.128 22.63 96.876 23.296 96.876 24.1C96.876 24.712 97.026 25.258 97.326 25.738C97.638 26.206 98.04 26.626 98.532 26.998C99.036 27.37 99.708 27.808 100.548 28.312C102.072 29.212 103.236 29.968 104.04 30.58C104.844 31.192 105.516 31.972 106.056 32.92C106.608 33.856 106.884 35.008 106.884 36.376C106.884 37.828 106.572 39.082 105.948 40.138C105.324 41.194 104.43 42.004 103.266 42.568C102.102 43.12 100.728 43.396 99.144 43.396ZM122.865 39.364H113.901L112.569 43H107.529L118.149 17.476H118.509L129.165 43H124.269L122.865 39.364ZM121.533 35.872L118.905 29.032L118.293 27.016L117.717 29.032L115.197 35.872H121.533ZM143.812 29.716C145.216 30.052 146.266 30.742 146.962 31.786C147.658 32.818 148.006 34.144 148.006 35.764C148.006 38.068 147.22 39.85 145.648 41.11C144.088 42.37 141.67 43 138.394 43H131.59V17.908H138.286C143.926 17.908 146.746 20.14 146.746 24.604C146.746 25.648 146.5 26.644 146.008 27.592C145.516 28.54 144.784 29.248 143.812 29.716ZM142.282 24.748C142.282 23.548 141.91 22.702 141.166 22.21C140.422 21.718 139.462 21.472 138.286 21.472H136.126V28.42H139.042C139.81 28.42 140.434 28.234 140.914 27.862C141.394 27.49 141.742 27.028 141.958 26.476C142.174 25.912 142.282 25.336 142.282 24.748ZM138.898 39.364C140.194 39.364 141.244 39.094 142.048 38.554C142.852 38.002 143.254 36.988 143.254 35.512C143.254 34.036 142.834 33.046 141.994 32.542C141.166 32.026 140.062 31.768 138.682 31.768H136.126V39.364H138.898ZM160.907 43.432C158.675 43.432 156.773 42.904 155.201 41.848C153.629 40.78 152.441 39.274 151.637 37.33C150.833 35.374 150.431 33.076 150.431 30.436C150.431 27.82 150.827 25.54 151.619 23.596C152.423 21.64 153.599 20.134 155.147 19.078C156.707 18.01 158.591 17.476 160.799 17.476C163.091 17.476 165.023 18.016 166.595 19.096C168.167 20.164 169.343 21.67 170.123 23.614C170.915 25.558 171.311 27.832 171.311 30.436C171.311 33.076 170.903 35.374 170.087 37.33C169.283 39.274 168.101 40.78 166.541 41.848C164.981 42.904 163.103 43.432 160.907 43.432ZM160.907 39.58C161.975 39.58 162.929 39.238 163.769 38.554C164.621 37.87 165.293 36.832 165.785 35.44C166.277 34.048 166.523 32.344 166.523 30.328C166.523 27.364 166.019 25.108 165.011 23.56C164.015 22 162.611 21.22 160.799 21.22C159.035 21.22 157.667 22 156.695 23.56C155.735 25.108 155.255 27.376 155.255 30.364C155.255 32.404 155.483 34.114 155.939 35.494C156.407 36.862 157.061 37.888 157.901 38.572C158.753 39.244 159.755 39.58 160.907 39.58ZM184.027 43.468C181.303 43.468 179.131 42.742 177.511 41.29C175.903 39.826 175.099 37.408 175.099 34.036V17.908H179.779V34.54C179.779 36.436 180.193 37.744 181.021 38.464C181.861 39.184 182.839 39.544 183.955 39.544C185.083 39.544 186.043 39.19 186.835 38.482C187.627 37.774 188.023 36.46 188.023 34.54V17.908H192.703V34.036C192.703 37.408 191.917 39.826 190.345 41.29C188.773 42.742 186.667 43.468 184.027 43.468ZM209.122 43L202.678 33.928V43H198.106V17.908H205.09C211.042 17.908 214.018 20.572 214.018 25.9C214.018 27.088 213.826 28.258 213.442 29.41C213.058 30.55 212.428 31.564 211.552 32.452C210.688 33.34 209.578 33.952 208.222 34.288L214.702 43H209.122ZM204.586 31.66C205.606 31.66 206.476 31.42 207.196 30.94C207.928 30.448 208.48 29.8 208.852 28.996C209.224 28.18 209.41 27.292 209.41 26.332C209.41 24.676 209.026 23.458 208.258 22.678C207.502 21.898 206.242 21.508 204.478 21.508H202.678V31.66H204.586Z" fill="white"/>
<g clip-path="url(#clip0_101_2)">
<path d="M18.595 53C21.9134 53 23.6751 50.008 24.1931 48.2404C24.2014 48.2125 24.2091 48.1841 24.2162 48.155C25.4233 43.1075 27.3463 35.1073 28.7708 29.2882H33.8677C34.8261 29.2882 35.6032 28.504 35.6032 27.5362C35.6032 26.5684 34.8261 25.7841 33.8677 25.7841H29.6334C30.0893 23.9507 30.423 22.6449 30.5544 22.1992L30.7003 21.7004C31.2383 19.8468 32.4982 15.5049 34.4465 15.5049C36.2532 15.5049 36.5225 18.314 36.5347 18.4497C36.6117 19.4115 37.4426 20.1379 38.3975 20.0548C39.3533 19.9811 40.0686 19.1379 39.9948 18.1736C39.8326 16.038 38.4628 12 34.4459 12C29.8976 12 28.1901 17.8856 27.3696 20.7147L27.23 21.192C27.0633 21.7519 26.6259 23.4769 26.0554 25.7841H19.9833C19.0247 25.7841 18.2479 26.5684 18.2479 27.5362C18.2479 28.504 19.0247 29.2882 19.9833 29.2882H25.1956C23.4137 36.5846 21.1109 46.2088 20.8576 47.2683C20.763 47.546 20.0514 49.4956 18.5958 49.4956C16.3731 49.4956 15.4108 46.346 15.4031 46.3224C15.1363 45.3934 14.1763 44.8558 13.2533 45.1268C12.3328 45.3963 11.8022 46.3679 12.069 47.2974C12.6762 49.4151 14.7334 53 18.595 53Z" fill="white"/>
<path d="M51.0166 47C52.0944 47 53 46.2661 53 45.0978C53 44.5551 52.7736 44.0654 52.2916 43.5218L48.4943 39.3373L52.179 35.207C52.519 34.7993 52.7736 34.3646 52.7736 33.794C52.7736 32.7604 51.8947 32 50.7608 32C49.996 32 49.4014 32.4618 48.8904 33.0607L46.0284 36.6463L43.2229 33.0601C42.6553 32.3815 42.0611 32 41.211 32C40.133 32 39.227 32.7345 39.227 33.9028C39.227 34.4455 39.454 34.9352 39.9348 35.4779L43.4778 39.3912L39.5946 43.793C39.2261 44.2007 39 44.6354 39 45.206C39 46.2393 39.8786 46.9994 41.0116 46.9994C41.777 46.9994 42.3719 46.5376 42.882 45.9393L45.9419 42.0814L49.0027 45.9393C49.5714 46.6197 50.1665 47 51.0166 47Z" fill="white"/>
</g>
<defs>
<clipPath id="clip0_101_2">
<rect width="53" height="53" fill="white" transform="translate(8)"/>
</clipPath>
</defs>
</svg>
