<svg width="527" height="481" viewBox="0 0 527 481" fill="none" xmlns="http://www.w3.org/2000/svg">
<path d="M387.117 27.7682C388.532 26.7181 390.468 26.7181 391.883 27.7682L395.363 30.3496L398.868 33.1078C400.155 34.1206 400.695 35.8158 400.23 37.3864L399.393 40.2148L397.492 46.2091C396.965 47.8709 395.423 49 393.68 49H389.5H385.32C383.577 49 382.035 47.8709 381.508 46.2091L379.607 40.2148L378.77 37.3864C378.305 35.8158 378.845 34.1206 380.132 33.1078L383.637 30.3496L387.117 27.7682Z" fill="#C128CE" fill-opacity="0.8"/>
<path d="M338 137C338 164.338 298.601 186.5 250 186.5C201.399 186.5 162 164.338 162 137C162 109.662 262.399 0 311 0C359.601 0 338 109.662 338 137Z" fill="#D9D9D9" fill-opacity="0.16"/>
<path d="M514 388.5C514 415.838 474.601 438 426 438C377.399 438 338 415.838 338 388.5C338 361.162 438.399 251.5 487 251.5C535.601 251.5 514 361.162 514 388.5Z" fill="#D9D9D9" fill-opacity="0.16"/>
<path d="M189 402.5C189 429.838 149.601 452 101 452C52.3989 452 13 429.838 13 402.5C13 375.162 113.399 265.5 162 265.5C210.601 265.5 189 375.162 189 402.5Z" fill="#D9D9D9" fill-opacity="0.16"/>
<path d="M122.145 412.23C122.145 412.23 45.4466 333.519 76.8136 214.132C76.8136 214.132 93.6019 108.678 194.356 151.96C194.356 151.96 257.145 174.877 305.331 148.567C305.331 148.567 418.351 82.6539 448.987 170.4C448.987 170.4 480.732 261.605 431.085 332.903L122.145 412.23Z" fill="#25466F"/>
<path opacity="0.7" d="M122.145 412.23C122.145 412.23 45.4466 333.519 76.8136 214.132C76.8136 214.132 93.6019 108.678 194.356 151.96C194.356 151.96 257.145 174.877 305.331 148.567C305.331 148.567 418.351 82.6539 448.987 170.4C448.987 170.4 480.732 261.605 431.085 332.903L122.145 412.23Z" fill="#111010"/>
<path d="M396.072 180.603C398.912 180.603 401.215 178.299 401.215 175.456C401.215 172.613 398.912 170.308 396.072 170.308C393.231 170.308 390.928 172.613 390.928 175.456C390.928 178.299 393.231 180.603 396.072 180.603Z" fill="#111010"/>
<path d="M395.055 190.265C379.454 190.265 366.768 183.509 366.768 175.206C366.768 166.903 379.454 160.147 395.055 160.147C410.657 160.147 423.342 166.903 423.342 175.206C423.342 183.509 410.62 190.265 395.055 190.265ZM395.055 160.866C379.837 160.866 367.493 167.299 367.493 175.206C367.493 183.113 379.837 189.54 395.055 189.54C410.273 189.54 422.618 183.107 422.618 175.206C422.618 167.305 410.224 160.866 395.055 160.866Z" fill="#2F2E41"/>
<path d="M395.055 203.514C386.758 203.514 380.008 190.813 380.008 175.206C380.008 159.599 386.758 146.898 395.055 146.898C403.352 146.898 410.103 159.593 410.103 175.206C410.103 190.819 403.322 203.514 395.055 203.514ZM395.055 147.623C387.142 147.623 380.732 159.995 380.732 175.206C380.732 190.417 387.142 202.789 395.055 202.789C402.968 202.789 409.378 190.417 409.378 175.206C409.378 159.995 402.926 147.623 395.055 147.623Z" fill="#2F2E41"/>
<path d="M383.003 196.101C378.565 196.101 375.089 194.681 373.087 191.97C367.943 185.081 373.921 171.868 386.418 162.529C392.444 158.027 399.067 155.073 405.075 154.208C411.083 153.343 415.891 154.713 418.412 158.082C420.932 161.451 420.901 166.391 418.338 171.983C415.776 177.576 411.101 183.022 405.075 187.524C399.048 192.025 392.426 194.98 386.424 195.845C385.291 196.011 384.148 196.096 383.003 196.101ZM408.496 154.677C407.385 154.682 406.277 154.766 405.178 154.927C399.286 155.773 392.779 158.679 386.85 163.108C374.675 172.215 368.759 184.965 373.665 191.538C376.015 194.687 380.507 195.961 386.32 195.126C392.133 194.291 398.714 191.374 404.642 186.945C410.571 182.516 415.204 177.088 417.681 171.679C420.159 166.269 420.183 161.67 417.833 158.521C415.952 155.999 412.708 154.677 408.496 154.677Z" fill="#2F2E41"/>
<path d="M407.23 198.409C400.418 198.409 391.525 194.145 383.977 186.585C378.663 181.267 374.791 175.127 373.075 169.303C371.358 163.479 372.021 158.515 374.998 155.536C377.975 152.557 382.857 151.881 388.749 153.617C394.641 155.353 400.704 159.203 406.024 164.527C411.338 169.845 415.21 175.986 416.92 181.809C418.631 187.633 417.979 192.598 415.003 195.571C413.11 197.508 410.401 198.409 407.23 198.409ZM382.784 153.397C379.74 153.397 377.263 154.293 375.479 156.047C372.703 158.831 372.082 163.461 373.738 169.096C375.394 174.731 379.217 180.835 384.458 186.074C395.262 196.838 408.721 200.846 414.534 195.071C417.31 192.293 417.931 187.658 416.269 182.023C414.607 176.388 410.79 170.284 405.549 165.051C400.321 159.812 394.294 156.005 388.591 154.323C386.716 153.745 384.769 153.437 382.808 153.41L382.784 153.397Z" fill="#2F2E41"/>
<path d="M363.56 85.3708H283.32C278.976 85.3708 275.455 88.8946 275.455 93.2414V139.112C275.455 143.459 278.976 146.983 283.32 146.983H363.56C367.904 146.983 371.425 143.459 371.425 139.112V93.2414C371.425 88.8946 367.904 85.3708 363.56 85.3708Z" fill="#E6E7E8"/>
<path d="M286.022 161.177V143.06H303.827C303.827 143.06 297.186 158.46 286.022 161.177Z" fill="#E6E7E8"/>
<path d="M354.229 98.3585H291.756V104.7H354.229V98.3585Z" fill="#111010"/>
<path d="M354.229 111.042H291.756V117.383H354.229V111.042Z" fill="#111010"/>
<path d="M354.679 125.54H292.207V131.881H354.679V125.54Z" fill="#111010"/>
<path d="M475.01 226.73H394.848V278.315H475.01V226.73Z" fill="#E6E7E8"/>
<path d="M436.977 267.374C441.082 267.374 444.41 264.044 444.41 259.936C444.41 255.828 441.082 252.498 436.977 252.498C432.873 252.498 429.545 255.828 429.545 259.936C429.545 264.044 432.873 267.374 436.977 267.374Z" fill="#25466F"/>
<path d="M449.992 242.806C451.679 242.806 453.047 241.437 453.047 239.748C453.047 238.059 451.679 236.69 449.992 236.69C448.304 236.69 446.936 238.059 446.936 239.748C446.936 241.437 448.304 242.806 449.992 242.806Z" fill="#25466F"/>
<path d="M416.129 264.834C418.832 264.834 421.023 262.641 421.023 259.936C421.023 257.231 418.832 255.038 416.129 255.038C413.426 255.038 411.235 257.231 411.235 259.936C411.235 262.641 413.426 264.834 416.129 264.834Z" fill="#25466F"/>
<path d="M421.08 259.58L420.969 260.296L429.624 261.642L429.736 260.925L421.08 259.58Z" fill="#2F2E41"/>
<path d="M448.246 242.227L440.658 253.446L441.258 253.853L448.846 242.633L448.246 242.227Z" fill="#2F2E41"/>
<path d="M86.1695 290.742C86.1343 290.746 86.0988 290.742 86.0649 290.732C86.0311 290.722 85.9995 290.705 85.9721 290.683C85.9447 290.661 85.9219 290.633 85.9052 290.602C85.8884 290.571 85.8779 290.537 85.8743 290.502C85.8707 290.466 85.8741 290.431 85.8842 290.397C85.8943 290.363 85.911 290.332 85.9334 290.304C85.9557 290.277 85.9832 290.254 86.0143 290.237C86.0454 290.22 86.0796 290.21 86.1147 290.206L101.424 286.88C101.461 286.866 101.5 286.86 101.539 286.863C101.579 286.866 101.617 286.877 101.651 286.896C101.686 286.914 101.716 286.941 101.74 286.972C101.763 287.003 101.78 287.04 101.788 287.078C101.796 287.117 101.797 287.156 101.788 287.195C101.78 287.233 101.763 287.269 101.74 287.301C101.716 287.332 101.686 287.359 101.651 287.377C101.617 287.396 101.579 287.407 101.54 287.41L86.2304 290.736L86.1695 290.742Z" fill="#2F2E41"/>
<path d="M83.2112 297.431C83.15 297.43 83.091 297.408 83.0436 297.37C82.9961 297.331 82.963 297.277 82.9494 297.218C82.9404 297.183 82.9385 297.147 82.9439 297.112C82.9492 297.077 82.9617 297.043 82.9805 297.013C82.9993 296.983 83.024 296.957 83.0532 296.937C83.0824 296.916 83.1154 296.902 83.1503 296.895L106.72 291.51C106.754 291.502 106.791 291.501 106.826 291.507C106.861 291.513 106.895 291.526 106.925 291.545C106.955 291.565 106.981 291.59 107.001 291.619C107.021 291.649 107.035 291.682 107.042 291.717C107.051 291.751 107.053 291.787 107.048 291.822C107.043 291.858 107.03 291.891 107.011 291.922C106.992 291.952 106.968 291.978 106.939 291.998C106.909 292.019 106.876 292.033 106.841 292.04L83.272 297.425L83.2112 297.431Z" fill="#E6E7E8"/>
<path d="M84.4103 303.894C84.3467 303.889 84.2869 303.862 84.2413 303.817C84.1957 303.772 84.1672 303.713 84.1607 303.649C84.1542 303.585 84.1701 303.522 84.2057 303.468C84.2413 303.415 84.2943 303.376 84.3556 303.358L108.272 298.028C108.342 298.013 108.415 298.027 108.475 298.066C108.536 298.104 108.579 298.165 108.595 298.235C108.609 298.305 108.596 298.378 108.557 298.439C108.518 298.499 108.457 298.542 108.388 298.558L84.4712 303.888L84.4103 303.894Z" fill="#2F2E41"/>
<path d="M89.2679 322.145C89.2048 322.145 89.1438 322.123 89.095 322.083C89.0462 322.043 89.0127 321.988 89.0001 321.926C88.993 321.891 88.9932 321.854 89.0005 321.819C89.0078 321.784 89.0221 321.751 89.0425 321.721C89.063 321.692 89.0891 321.666 89.1195 321.647C89.1498 321.628 89.1837 321.615 89.2192 321.609L112.898 317.101C112.969 317.089 113.042 317.105 113.101 317.146C113.161 317.187 113.201 317.25 113.215 317.321C113.226 317.391 113.209 317.464 113.168 317.523C113.127 317.582 113.066 317.623 112.996 317.637L89.3166 322.139L89.2679 322.145Z" fill="#2F2E41"/>
<path d="M94.9959 328.164C94.9353 328.164 94.8764 328.144 94.8288 328.106C94.7813 328.068 94.7479 328.016 94.7341 327.957C94.7176 327.887 94.7294 327.813 94.767 327.751C94.8046 327.689 94.865 327.645 94.935 327.628L110.153 324.052C110.224 324.037 110.298 324.051 110.359 324.089C110.42 324.128 110.464 324.189 110.482 324.259C110.49 324.293 110.491 324.329 110.485 324.364C110.479 324.399 110.467 324.432 110.448 324.462C110.43 324.492 110.405 324.518 110.376 324.539C110.348 324.559 110.315 324.574 110.281 324.582L95.0568 328.164H94.9959Z" fill="#E6E7E8"/>
<path d="M92.1106 335.529C92.0481 335.53 91.9871 335.51 91.9382 335.471C91.8893 335.432 91.8555 335.377 91.8427 335.316C91.8283 335.245 91.8427 335.171 91.8826 335.11C91.9226 335.05 91.9848 335.007 92.0558 334.993L115.85 329.991C115.921 329.979 115.994 329.994 116.054 330.033C116.114 330.073 116.157 330.134 116.173 330.205C116.187 330.276 116.173 330.35 116.133 330.41C116.093 330.471 116.031 330.513 115.96 330.527L92.1653 335.504L92.1106 335.529Z" fill="#2F2E41"/>
<path d="M96.3715 351.922C96.3005 351.929 96.2295 351.908 96.1741 351.863C96.1188 351.818 96.0836 351.752 96.0763 351.681C96.0691 351.61 96.0903 351.539 96.1354 351.484C96.1805 351.428 96.2457 351.393 96.3168 351.386L118.797 346.677C118.866 346.662 118.938 346.676 118.998 346.715C119.057 346.754 119.098 346.814 119.113 346.884C119.122 346.919 119.124 346.955 119.118 346.991C119.112 347.026 119.099 347.06 119.08 347.09C119.06 347.121 119.035 347.147 119.005 347.167C118.975 347.187 118.942 347.2 118.906 347.207L96.4263 351.922H96.3715Z" fill="#2F2E41"/>
<path d="M99.3482 358.367C99.2884 358.367 99.2301 358.348 99.1827 358.311C99.1353 358.275 99.1014 358.224 99.0864 358.166C99.0695 358.096 99.0803 358.022 99.1166 357.959C99.1529 357.897 99.2119 357.851 99.2812 357.831L117.884 353.14C117.918 353.131 117.954 353.129 117.989 353.134C118.024 353.139 118.058 353.151 118.088 353.169C118.119 353.188 118.145 353.212 118.167 353.24C118.188 353.268 118.203 353.301 118.212 353.335C118.221 353.369 118.223 353.405 118.218 353.44C118.213 353.476 118.201 353.509 118.183 353.54C118.165 353.57 118.141 353.597 118.112 353.618C118.084 353.64 118.052 353.655 118.017 353.664L99.4151 358.367H99.3482Z" fill="#E6E7E8"/>
<path d="M101.107 363.204C101.047 363.204 100.988 363.184 100.94 363.146C100.893 363.108 100.859 363.056 100.846 362.997C100.829 362.926 100.841 362.852 100.879 362.791C100.916 362.729 100.976 362.685 101.046 362.668L118.699 358.458C118.734 358.449 118.77 358.447 118.806 358.453C118.841 358.458 118.875 358.47 118.906 358.489C118.937 358.508 118.963 358.532 118.984 358.562C119.005 358.591 119.02 358.624 119.028 358.659C119.044 358.729 119.033 358.803 118.995 358.865C118.957 358.927 118.897 358.971 118.827 358.988L101.174 363.198L101.107 363.204Z" fill="#E6E7E8"/>
<path d="M359.823 401.46L386.162 438.254V412.626C385.356 412.741 384.534 412.629 383.788 412.303C383.788 412.303 363.53 401.302 359.823 401.46Z" fill="#2F2E41"/>
<path d="M298.787 295.189C298.787 295.189 295.391 259.455 313.068 253.126L352.926 257.81C352.926 257.81 360.127 261.52 362.696 266.302C362.696 266.302 377.043 272.619 382.175 279.29C382.175 279.29 390.697 293.484 393.284 304.765C393.284 304.765 397.216 327.335 393.284 349.564L390.593 388.198C390.593 388.198 391.689 406.187 387.41 411.767C386.97 412.273 386.364 412.605 385.701 412.703C385.038 412.802 384.362 412.66 383.794 412.303C378.845 409.623 365.204 402.422 359.829 401.46C359.829 401.46 353.188 399.09 336.387 370.91L307.279 317.619L298.787 295.189Z" fill="#25466F"/>
<path opacity="0.2" d="M309.172 281.379C309.172 281.379 308.892 312.904 308.32 319.526L312.921 327.945L309.172 281.379Z" fill="black"/>
<path d="M392.736 302.646C392.736 302.646 435.803 307.97 431.085 332.879C431.085 332.879 430.318 347.225 417.085 379.907C417.085 379.907 394.008 432.644 396.084 450.45L388.779 439.527L389.784 435.488C390.005 433.254 389.925 431 389.546 428.788C389.546 428.788 388.445 426.18 392.468 412.638L410.121 362.534C410.121 362.534 424.487 324.436 394.787 319.684C394.8 319.672 394.1 306.843 392.736 302.646Z" fill="#A7A9AC"/>
<path d="M394.8 319.672C394.8 319.672 415.118 320.574 413.578 344.941C413.578 344.941 413.877 351.891 409.11 365.421L392.48 412.626C392.48 412.626 389.218 423.634 389.558 428.775C390.224 432.366 389.96 436.068 388.792 439.527L386.162 435.586V412.626C386.162 412.626 389.93 411.505 390.545 395.77L390.587 388.198L391.232 378.957L393.278 349.564C393.278 349.564 395.104 327.762 394.8 319.672Z" fill="#BCBEC0"/>
<path d="M118.9 459.447L130.344 293.002C130.361 292.742 130.478 292.498 130.671 292.322C130.864 292.146 131.118 292.051 131.379 292.058L292.183 295.683C292.345 295.686 292.504 295.729 292.646 295.808C292.788 295.886 292.909 295.998 292.998 296.133L401.836 459.057C401.94 459.209 402 459.387 402.01 459.57C402.02 459.753 401.979 459.936 401.892 460.098C401.806 460.26 401.676 460.395 401.518 460.489C401.36 460.583 401.18 460.631 400.996 460.629C377.256 460.55 138.543 459.776 119.947 460.526C119.805 460.532 119.664 460.508 119.532 460.456C119.4 460.404 119.28 460.324 119.181 460.222C119.082 460.12 119.006 459.998 118.958 459.865C118.909 459.731 118.89 459.589 118.9 459.447Z" fill="#D1D3D4"/>
<path d="M283.849 298.564C284.087 297.784 284.799 297.072 286.692 297.346C286.692 297.346 295.184 297.151 296.985 296.158C296.985 296.158 300.419 293.319 302.19 296.767C302.19 296.767 306.451 301.982 307.754 311.217C307.754 311.217 310.359 321.164 303.73 317.022C303.73 317.022 301.246 321.518 293.79 320.336C293.79 320.336 291.154 320.178 290.411 318.411C290.296 318.119 290.242 317.806 290.251 317.492C290.261 317.177 290.334 316.869 290.466 316.583C291.239 314.829 293.297 308.201 284.562 300.806C284.238 300.542 283.998 300.189 283.872 299.791C283.746 299.393 283.738 298.967 283.849 298.564Z" fill="#25466F"/>
<path opacity="0.2" d="M283.849 298.564C284.087 297.784 284.799 297.072 286.692 297.346C286.692 297.346 295.184 297.151 296.985 296.158C296.985 296.158 300.419 293.319 302.19 296.767C302.19 296.767 306.451 301.982 307.754 311.217C307.754 311.217 310.359 321.164 303.73 317.022C303.73 317.022 301.246 321.518 293.79 320.336C293.79 320.336 291.154 320.178 290.411 318.411C290.296 318.119 290.242 317.806 290.251 317.492C290.261 317.177 290.334 316.869 290.466 316.583C291.239 314.829 293.297 308.201 284.562 300.806C284.238 300.542 283.998 300.189 283.872 299.791C283.746 299.393 283.738 298.967 283.849 298.564Z" fill="#111010"/>
<path opacity="0.2" d="M286.704 297.37L291.47 303.249C292.582 304.606 293.399 306.181 293.869 307.872C294.474 309.889 294.627 312.014 294.318 314.097C294.009 316.18 293.244 318.168 292.079 319.922C292.079 319.922 290.862 319.8 290.405 318.094C290.264 317.543 290.315 316.961 290.551 316.443C291.16 314.994 292.335 310.961 288.908 305.533C288.908 305.533 286.589 302.329 284.574 300.794C284.574 300.794 282.869 299.222 284.196 297.943C284.184 297.943 284.817 297.437 286.704 297.37Z" fill="#111010"/>
<path opacity="0.2" d="M293.029 296.986C293.029 296.986 297.935 301.86 298.939 305.362C298.939 305.362 301.794 301.707 297.722 295.695C297.722 295.695 296.821 296.73 292.737 297.017" fill="#111010"/>
<path opacity="0.2" d="M300.656 304.662C300.656 304.662 303.279 314.147 299.006 320.202C300.923 319.775 302.609 318.642 303.73 317.028C303.73 317.028 305.27 308.92 300.656 304.662Z" fill="#111010"/>
<path d="M283.77 299.575L259.829 304.12C259.829 304.12 257.109 305.655 252.963 302.932L247.168 299.575C247.168 299.575 245.275 297.748 239.833 299.027L234.081 300.142C233.412 300.267 232.788 300.568 232.272 301.013C231.757 301.458 231.369 302.032 231.147 302.676C229.789 306.642 227.269 314.744 229.418 314.561C229.418 314.561 230.362 314.92 231.664 313.617C231.664 313.617 231.311 316.456 232.492 317.522L236.187 321.329C236.29 321.437 236.415 321.522 236.554 321.577C236.693 321.631 236.843 321.655 236.992 321.645C237.141 321.636 237.286 321.594 237.418 321.523C237.549 321.451 237.663 321.352 237.751 321.231C238.031 320.811 238.202 320.086 238.001 318.795C237.995 318.773 237.997 318.75 238.007 318.73C238.016 318.71 238.032 318.693 238.052 318.683C238.072 318.673 238.094 318.67 238.116 318.675C238.138 318.68 238.158 318.692 238.171 318.709L240.436 321.244C240.571 321.394 240.749 321.5 240.946 321.545C241.144 321.591 241.35 321.575 241.538 321.5C242.146 321.244 242.755 320.476 241.726 318.21C241.726 318.21 244.088 320.683 245.75 319.922C245.75 319.922 246.815 319.751 245.275 317.485C245.275 317.485 251.362 320.33 256.177 316.541C256.177 316.541 256.518 315.59 260.773 316.181L290.119 317.369C290.119 317.369 294.739 308.841 284.562 300.781C284.306 300.71 284.085 300.549 283.94 300.327C283.794 300.105 283.734 299.838 283.77 299.575Z" fill="#F9B499"/>
<path d="M259.044 316.023C259.044 316.023 259.373 313.55 270.439 314.488C271.061 314.543 271.685 314.561 272.308 314.543L282.814 314.275C282.814 314.275 288.147 315.012 286.99 308.743C286.789 307.711 286.449 306.711 285.98 305.771C285.073 303.907 283.253 300.288 282.65 299.789L283.77 299.575C283.77 299.575 283.709 300.087 284.561 300.794C284.561 300.794 294.234 307.811 290.119 317.381L259.044 316.023Z" fill="#F7A48B"/>
<path d="M231.664 313.592C231.975 313.17 232.235 312.712 232.437 312.228C232.65 311.753 232.839 311.265 233.003 310.772C233.168 310.279 233.326 309.779 233.466 309.279C233.606 308.78 233.722 308.268 233.85 307.757V307.842C233.831 307.512 233.903 307.184 234.057 306.891C234.198 306.616 234.387 306.368 234.617 306.16C234.838 305.963 235.086 305.797 235.353 305.667C235.614 305.539 235.887 305.437 236.169 305.362C235.924 305.507 235.686 305.663 235.457 305.832C235.236 306.001 235.032 306.19 234.848 306.398C234.68 306.599 234.545 306.825 234.446 307.068C234.357 307.293 234.318 307.534 234.33 307.775V307.86C234.233 308.384 234.111 308.908 233.977 309.426C233.828 309.942 233.651 310.451 233.448 310.949C233.245 311.448 232.997 311.927 232.705 312.38C232.432 312.842 232.079 313.252 231.664 313.592Z" fill="#F7A48B"/>
<path d="M243.918 301.013C243.126 301.701 242.359 302.414 241.635 303.169C240.905 303.908 240.224 304.694 239.596 305.521C238.967 306.329 238.469 307.231 238.123 308.195C237.964 308.657 237.914 309.149 237.977 309.633C238.06 310.098 238.288 310.524 238.628 310.851C238.782 310.947 238.958 310.999 239.139 311.003C239.35 311.007 239.558 310.961 239.748 310.869C240.143 310.675 240.495 310.404 240.783 310.071C241.091 309.722 241.366 309.345 241.605 308.944C241.86 308.555 242.073 308.128 242.292 307.726L242.512 307.306L242.737 307.72C243.125 308.419 243.609 309.061 244.173 309.627C244.738 310.2 245.399 310.668 246.127 311.01C246.857 311.358 247.651 311.553 248.459 311.582C248.865 311.602 249.273 311.586 249.676 311.533C250.084 311.485 250.48 311.369 250.894 311.296C250.498 311.405 250.108 311.564 249.676 311.637C249.276 311.722 248.868 311.769 248.459 311.777C248.039 311.788 247.619 311.76 247.205 311.692C246.787 311.606 246.38 311.48 245.987 311.314C245.204 310.986 244.485 310.522 243.863 309.943C243.238 309.363 242.706 308.689 242.286 307.945H242.731C242.521 308.387 242.29 308.818 242.037 309.237C241.79 309.669 241.502 310.077 241.178 310.455C240.846 310.856 240.43 311.18 239.961 311.405C239.699 311.535 239.408 311.593 239.117 311.571C238.825 311.55 238.545 311.45 238.305 311.284C237.893 310.871 237.622 310.338 237.532 309.761C237.464 309.2 237.526 308.63 237.715 308.098C238.083 307.084 238.634 306.147 239.34 305.332C240.01 304.515 240.741 303.749 241.525 303.042C242.283 302.32 243.082 301.642 243.918 301.013Z" fill="#F7A48B"/>
<path d="M237.697 309.474C237.581 310.297 237.429 311.107 237.246 311.911C237.064 312.715 236.838 313.531 236.637 314.281C236.569 314.642 236.59 315.014 236.698 315.365C236.832 315.736 236.993 316.096 237.179 316.443C237.538 317.187 237.861 317.942 238.153 318.716C237.674 318.045 237.224 317.357 236.802 316.65C236.561 316.296 236.357 315.919 236.193 315.524C236.049 315.09 236.014 314.628 236.09 314.177C236.309 313.337 236.546 312.587 236.808 311.795C237.07 311.003 237.398 310.236 237.697 309.474Z" fill="#F7A48B"/>
<path d="M241.726 318.21C241.263 317.909 240.876 317.504 240.597 317.027C240.318 316.55 240.155 316.014 240.119 315.463C240.084 314.911 240.159 314.358 240.338 313.836C240.428 313.58 240.538 313.331 240.667 313.093C240.807 312.864 240.962 312.644 241.13 312.435C241.069 312.697 240.984 312.947 240.917 313.196C240.85 313.446 240.789 313.69 240.758 313.94C240.667 314.427 240.638 314.925 240.673 315.42C240.708 315.913 240.817 316.397 240.996 316.858C241.18 317.338 241.426 317.793 241.726 318.21Z" fill="#F7A48B"/>
<path d="M285.176 368.887H285.158" stroke="#ED1C24" stroke-miterlimit="10"/>
<path opacity="0.2" d="M356.938 341.145C356.938 341.145 362.185 345.129 366.446 353.426C366.446 353.426 369.958 351.83 362.793 341.145C362.793 341.145 365.502 338.751 366.141 336.674C366.141 336.674 369.794 340.189 370.926 343.984C370.926 343.984 371.881 338.081 366.458 335.212C367.62 331.187 368.472 327.08 369.008 322.925C369.008 322.925 372.697 299.776 378.894 292.131C378.894 292.131 369.154 297.401 364.066 318.777C363.229 323.042 362.698 327.362 362.477 331.703C362.477 331.703 362.087 340.823 356.938 341.145Z" fill="black"/>
<path d="M364.224 371.202C361.831 373.436 358.924 375.045 355.76 375.884C352.597 376.724 349.275 376.769 346.09 376.015L345.737 375.923C345.737 375.923 340.868 375.412 342.572 371.202C342.572 371.202 349.396 366.365 334.013 350.082C334.013 350.082 328.851 346.33 332.017 344.941C332.121 344.89 332.229 344.847 332.339 344.813C332.339 344.813 332.82 344.015 341.592 344.015C341.592 344.015 347.679 343.911 350.522 342.285C350.522 342.285 354.424 338.794 356.938 341.139C356.938 341.139 367.62 351.989 367.894 363.478C367.913 363.496 369.489 376.526 364.224 371.202Z" fill="#25466F"/>
<path opacity="0.2" d="M364.224 371.202C361.831 373.436 358.924 375.045 355.76 375.884C352.597 376.724 349.275 376.769 346.09 376.015L345.737 375.923C345.737 375.923 340.868 375.412 342.572 371.202C342.572 371.202 349.396 366.365 334.013 350.082C334.013 350.082 328.851 346.33 332.017 344.941C332.121 344.89 332.229 344.847 332.339 344.813C332.339 344.813 332.82 344.015 341.592 344.015C341.592 344.015 347.679 343.911 350.522 342.285C350.522 342.285 354.424 338.794 356.938 341.139C356.938 341.139 367.62 351.989 367.894 363.478C367.913 363.496 369.489 376.526 364.224 371.202Z" fill="#111010"/>
<path opacity="0.3" d="M346.09 376.015L345.737 375.923C345.737 375.923 340.868 375.412 342.572 371.202C342.572 371.202 349.396 366.365 334.013 350.082C334.013 350.082 328.851 346.33 332.017 344.941C337.288 348.717 349.231 359.311 346.09 376.015Z" fill="#111010"/>
<path opacity="0.2" d="M337.118 344.106C337.118 344.106 348.446 355.345 351.313 362.521C351.313 362.521 353.425 355.339 343.199 343.935L337.118 344.106Z" fill="#111010"/>
<path opacity="0.2" d="M350.522 342.285C350.522 342.285 354.344 348.644 354.344 351.514C354.344 351.514 356.055 347.725 353.364 340.603C352.361 341.063 351.408 341.627 350.522 342.285Z" fill="#111010"/>
<path opacity="0.2" d="M356.566 375.68C356.566 375.68 366.306 369.143 360.742 356.424C360.742 356.424 364.449 359.134 364.224 371.214C362.086 373.323 359.453 374.858 356.566 375.68Z" fill="#111010"/>
<path d="M226.655 343.935L285.158 362.521L237.697 401.771L143.516 367.608L152.659 362.302L226.655 343.935Z" fill="#25466F"/>
<path opacity="0.1" d="M226.655 343.935L285.158 362.521L237.697 401.771L143.516 367.608L152.659 362.302L226.655 343.935Z" fill="black"/>
<path d="M143.516 367.608L145.367 378.64L237.258 413.339L288.567 367.608L285.158 362.521L237.697 401.771L143.516 367.608Z" fill="#25466F"/>
<path d="M116.934 281.379L122.047 277.986L220.817 301.013L237.258 395.776L233.917 398.518L215.819 306.343L116.934 281.379Z" fill="#25466F"/>
<path opacity="0.2" d="M116.934 281.379L122.047 277.986L220.817 301.013L237.258 395.776L233.917 398.518L215.819 306.343L116.934 281.379Z" fill="black"/>
<path opacity="0.1" d="M237.258 395.776L259.002 374.577L232.297 367.157L237.258 395.776Z" fill="black"/>
<path opacity="0.1" d="M231.238 361.078L238.171 363.728L246.699 355.814L229.016 348.248L231.238 361.078Z" fill="black"/>
<path d="M236.333 425.632L199.81 445.558H196.158L199.08 440.904L233.904 421.301C234.385 421.03 234.954 420.959 235.486 421.105C236.018 421.251 236.472 421.602 236.747 422.08L237.131 422.751C237.174 422.827 237.213 422.907 237.246 422.988C237.446 423.464 237.463 423.997 237.295 424.485C237.126 424.973 236.784 425.381 236.333 425.632Z" fill="#BCBEC0"/>
<path opacity="0.1" d="M236.333 425.632L199.81 445.558H196.158L237.246 423.019C237.438 423.491 237.45 424.017 237.282 424.498C237.114 424.979 236.777 425.382 236.333 425.632Z" fill="black"/>
<path d="M242.372 434.77L220.385 450.815H218.187L219.946 447.069L240.917 431.279C241.525 430.828 242.28 431.109 242.627 431.888L242.858 432.43C242.858 432.497 242.907 432.558 242.932 432.625C243.061 432.998 243.077 433.401 242.977 433.783C242.877 434.164 242.667 434.508 242.372 434.77Z" fill="#BCBEC0"/>
<path opacity="0.1" d="M242.372 434.77L220.385 450.815H218.187L242.932 432.644C243.057 433.014 243.071 433.413 242.971 433.791C242.872 434.169 242.663 434.509 242.372 434.77Z" fill="black"/>
<path d="M295.062 384.756C295.062 384.756 315.478 376.606 321.955 376.015C321.955 376.015 344.081 413.893 347.393 422.537C347.393 422.537 345.232 426.192 330.16 432.479L295.062 387.4V384.756Z" fill="#25466F"/>
<path opacity="0.1" d="M295.062 385.81V384.756L301.758 382.186L322.795 386.511L328.937 405.84L335.328 407.911L330.416 418.669L334.287 430.676L330.16 432.479L295.062 387.37V385.81Z" fill="black"/>
<path d="M329.369 254.618C329.369 254.618 330.946 263.457 330.319 266.302L328.578 307.83L334.105 284.462C334.105 284.462 335.17 277.761 341.957 272.887C342.164 272.741 342.371 272.601 342.566 272.467C344.629 271.139 357.236 262.671 350.412 257.847L345.171 238.786L329.369 254.618Z" fill="#F9B499"/>
<path d="M329.369 254.618C329.369 254.618 331.025 262.83 330.318 266.302C330.318 266.302 346.303 259.376 347.009 245.353L345.183 238.749L329.369 254.618Z" fill="#F7A48B"/>
<path d="M324.773 257.81C336.97 257.81 346.857 244.004 346.857 226.974C346.857 209.943 336.97 196.137 324.773 196.137C312.576 196.137 302.689 209.943 302.689 226.974C302.689 244.004 312.576 257.81 324.773 257.81Z" fill="#F9B499"/>
<path d="M351.97 231.841L344.842 230.988L342.097 230.696C340.648 229.325 342.097 227.004 342.097 227.004C342.464 226.353 342.656 225.619 342.656 224.872C342.656 224.125 342.464 223.391 342.097 222.74C341.497 219.825 340.375 217.044 338.786 214.528C333.581 214.376 333.916 212.548 333.916 212.548C332.814 209.783 322.722 214.376 322.722 214.376C309.014 220.34 301.599 215.466 301.599 215.466C298.726 214.108 299.037 212.146 300.047 210.538C300.771 209.466 301.663 208.518 302.689 207.73C301.252 205.988 302.689 202.856 302.689 202.856C303.906 199.384 308.703 200.334 308.703 200.334C310.907 193.542 315.642 194.492 315.642 194.492C319.587 191.331 329.211 189.436 329.211 189.436C344.27 187.7 351.672 198.379 354.545 204.184C355.591 206.326 356.258 208.632 356.518 211.001C358.082 224.903 351.97 231.841 351.97 231.841Z" fill="#2F2E41"/>
<path opacity="0.2" d="M346.79 224.604C346.79 224.604 344.964 225.433 345.889 227.096L344.842 230.994L342.097 230.696C340.648 229.325 342.097 227.004 342.097 227.004C342.464 226.353 342.656 225.619 342.656 224.872C342.656 224.125 342.464 223.391 342.097 222.74C341.497 219.825 340.375 217.044 338.786 214.528C333.581 214.376 333.916 212.548 333.916 212.548C332.814 209.783 322.722 214.376 322.722 214.376C309.014 220.34 301.599 215.466 301.599 215.466C298.726 214.108 299.037 212.146 300.047 210.538C300.12 210.764 302.141 216.959 314.382 212.463C314.382 212.463 332.035 201.882 339.467 207.407C339.467 207.407 340.892 208.674 340.728 211.83C340.728 211.83 339.717 214.492 342.779 216.094C342.779 216.076 349.852 219.207 346.79 224.604Z" fill="black"/>
<path d="M346.857 240.698C349.809 240.698 352.202 237.625 352.202 233.833C352.202 230.041 349.809 226.968 346.857 226.968C343.906 226.968 341.513 230.041 341.513 233.833C341.513 237.625 343.906 240.698 346.857 240.698Z" fill="#F9B499"/>
<path d="M330.264 260.43L320.104 268.251L315.953 289.262L324.773 280.831L329.369 290.486L330.318 266.302C330.604 264.354 330.586 262.372 330.264 260.43Z" fill="#25466F"/>
<path opacity="0.2" d="M330.264 260.43L320.104 268.251L315.953 289.262L324.773 280.831L329.369 290.486L330.318 266.302C330.604 264.354 330.586 262.372 330.264 260.43Z" fill="#111010"/>
<path d="M336.381 278.851C336.381 278.851 344.788 277.943 350.674 285.991L356.938 294.519L353.851 263.549C353.851 263.549 355.069 257.079 349.785 255.471L350.43 257.822C350.43 257.822 355.16 260.46 350.394 265.796C350.394 265.796 348.05 268.915 342.584 272.455C340.008 274.026 337.873 276.227 336.381 278.851Z" fill="#25466F"/>
<path opacity="0.2" d="M336.381 278.851C336.381 278.851 344.788 277.943 350.674 285.991L356.938 294.519L353.851 263.549C353.851 263.549 355.069 257.079 349.785 255.471L350.43 257.822C350.43 257.822 355.16 260.46 350.394 265.796C350.394 265.796 348.05 268.915 342.584 272.455C340.008 274.026 337.873 276.227 336.381 278.851Z" fill="#111010"/>
<path d="M247.247 348.267C247.247 348.267 238.287 354.675 241.051 355.979C241.469 356.263 241.963 356.415 242.469 356.415C242.975 356.415 243.469 356.263 243.887 355.979C243.887 355.979 243.954 353.183 247.247 348.267Z" fill="#F7A48B"/>
<path d="M342.572 371.202L285.992 368.906C285.718 368.906 285.444 368.906 285.176 368.906C282.381 368.842 279.623 368.246 277.05 367.151C274.777 366.19 272.758 364.714 271.152 362.84C269.545 360.966 268.395 358.745 267.791 356.35L264.431 359.396C262.203 362.065 260.365 361.985 259.531 361.742C259.36 361.697 259.196 361.627 259.044 361.535C256.098 360.225 260.195 354.73 260.578 354.224L256.926 358.02C253.103 361.839 251.569 360.456 251.569 360.456C248.568 359.329 251.703 354.109 252.939 352.245L250.833 355.254C246.73 360.919 245.147 358.909 245.147 358.909C241.306 357.587 246.413 349.29 248.8 345.781C249.131 345.291 249.561 344.876 250.062 344.561C250.563 344.246 251.124 344.04 251.709 343.954L262.837 342.291C263.77 342.154 264.722 342.316 265.557 342.754L283.07 351.891C284.178 352.469 285.42 352.739 286.668 352.671L334.013 350.094C349.152 365.689 342.572 371.202 342.572 371.202Z" fill="#F9B499"/>
<path d="M245.159 358.958L253.572 348.267L260.761 346.585L255.404 349.802L253.42 351.629L250.023 356.381C250.023 356.381 246.998 360.389 245.159 358.958Z" fill="#F7A48B"/>
<path d="M253.694 360.45L262.155 350.094C262.16 350.086 262.169 350.081 262.179 350.079C262.188 350.077 262.198 350.079 262.206 350.085C262.215 350.091 262.22 350.099 262.222 350.109C262.223 350.119 262.221 350.129 262.216 350.137L260.609 354.188C260.609 354.188 255.556 359.798 253.694 360.45Z" fill="#F7A48B"/>
<path d="M277.05 367.151C274.777 366.19 272.758 364.714 271.152 362.84C269.545 360.966 268.395 358.745 267.791 356.35L264.431 359.396C262.203 362.065 260.365 361.985 259.531 361.742C259.531 361.742 266.55 350.228 270.366 356.089L277.05 367.151Z" fill="#F7A48B"/>
<path d="M342.572 371.202C348.343 363.606 334.013 350.082 334.013 350.082L337.775 359.262C340.271 367.151 330.532 367.078 330.532 367.078L306.694 365.324C291.933 364.544 285.998 368.881 285.998 368.881L342.572 371.202Z" fill="#F7A48B"/>
<path d="M116.934 281.379L142.129 365.171L233.917 398.518L215.819 306.343L116.934 281.379Z" fill="#25466F"/>
<path opacity="0.2" d="M200.577 365.543L199.086 369.612L213.579 373.541L220.354 347.243L218.187 339.951L216.045 341.139L200.577 365.543Z" fill="black"/>
<path opacity="0.2" d="M149.531 296.408L151.771 295.433L158.972 318.71L145.379 323.455L140.351 301.013L149.531 296.408Z" fill="black"/>
<path d="M136.273 299.514L149.19 295.433L156.257 315.566L141.167 321.621L136.273 299.514Z" fill="#2F2E41"/>
<path d="M140.893 306.617C140.839 306.616 140.786 306.599 140.741 306.568C140.696 306.538 140.66 306.496 140.637 306.447C140.611 306.379 140.612 306.303 140.64 306.236C140.669 306.169 140.722 306.116 140.789 306.087L149.744 302.39C149.777 302.376 149.812 302.368 149.848 302.368C149.884 302.368 149.92 302.375 149.953 302.388C149.987 302.402 150.017 302.422 150.043 302.447C150.068 302.473 150.089 302.503 150.103 302.536C150.117 302.569 150.124 302.605 150.124 302.641C150.124 302.677 150.118 302.713 150.104 302.746C150.09 302.779 150.07 302.81 150.045 302.835C150.02 302.861 149.99 302.881 149.957 302.895L140.984 306.593C140.956 306.607 140.925 306.615 140.893 306.617Z" fill="#111010"/>
<path d="M143.516 308.804C143.459 308.804 143.402 308.785 143.356 308.751C143.309 308.718 143.273 308.67 143.255 308.615C143.231 308.547 143.236 308.472 143.268 308.407C143.3 308.342 143.357 308.292 143.425 308.268L149.78 306.081C149.814 306.069 149.85 306.064 149.886 306.065C149.922 306.067 149.957 306.077 149.99 306.093C150.022 306.108 150.051 306.131 150.075 306.158C150.098 306.186 150.116 306.217 150.127 306.252C150.15 306.321 150.145 306.396 150.113 306.461C150.082 306.526 150.025 306.576 149.957 306.599L143.608 308.786L143.516 308.804Z" fill="#111010"/>
<path d="M200.035 339.951L202.336 346.561L194.478 365.677L213.579 370.422L218.187 347.511L216.045 338.252L200.035 339.951Z" fill="#2F2E41"/>
<path d="M207.401 343.412C207.989 343.412 208.466 342.934 208.466 342.346C208.466 341.757 207.989 341.279 207.401 341.279C206.813 341.279 206.336 341.757 206.336 342.346C206.336 342.934 206.813 343.412 207.401 343.412Z" fill="#111010"/>
<path opacity="0.1" d="M269.892 423.719L269.319 425.864L306.451 435.568C306.451 435.568 316.422 411.986 316.902 406.486L315.953 401.771C315.953 401.771 310.042 426.491 304.241 433.277L269.892 423.719Z" fill="black"/>
<path d="M265.752 422.586L256.567 435.586C256.567 435.586 294.916 453.209 306.073 456.243L330.422 409.099L316.422 403.556L265.752 422.586Z" fill="#2F2E41"/>
<path d="M316.416 394.131L321.638 393.401L330.939 436.049L317.669 436.573L312.97 395.776L316.416 394.131Z" fill="#E6E7E8"/>
<path opacity="0.1" d="M320.36 428.562L321.133 433.874L327.89 422.062L326.648 416.373L320.36 428.562Z" fill="black"/>
<path opacity="0.1" d="M316.415 403.537L315.953 401.771L316.902 399.09L323.726 402.977L324.554 406.76L316.415 403.537Z" fill="black"/>
<path d="M269.892 423.719C269.892 423.719 265.697 438.668 267.244 441.745L322.795 445.546C322.795 445.546 317.505 407.625 315.953 401.771C315.953 401.771 310.383 425.687 304.241 433.277L269.892 423.719Z" fill="#25466F"/>
<path d="M263.043 421.812L304.241 433.277C304.241 433.277 307.626 430.231 312.702 413.339L318.966 390.982L285.974 383.849C285.974 383.849 276.338 394.284 271.584 405.17C271.383 405.633 271.176 406.084 270.945 406.528L263.043 421.812Z" fill="#111010"/>
<path d="M51.9902 123.146V259.936C51.9902 261.39 52.5674 262.785 53.5948 263.813C54.6222 264.841 56.0157 265.419 57.4687 265.419H253.627C255.08 265.419 256.473 264.841 257.5 263.813C258.528 262.785 259.105 261.39 259.105 259.936V123.146C259.105 121.692 258.528 120.297 257.5 119.269C256.473 118.241 255.08 117.663 253.627 117.663H57.4626C56.0107 117.665 54.6188 118.243 53.5927 119.271C52.5666 120.299 51.9902 121.693 51.9902 123.146Z" fill="#E6E7E8"/>
<path opacity="0.2" d="M168.005 117.669H152.818C152.818 117.669 153.962 121.757 155.545 123.274C155.545 123.274 151.533 129.761 160.414 132.375V142.731L159.1 145.088L156.488 143.913L152.836 148.676V150.01C152.836 150.01 133.607 156.181 131.123 162.468C131.123 162.468 123.52 175.194 126.545 204.038C126.545 204.038 127.763 226.115 137.752 228.253C137.752 228.253 138.105 236.27 140.418 237.689L136.157 247.217H151.004L161.601 241.563L180.471 135.969L177.537 117.694L168.005 117.669Z" fill="black"/>
<path d="M51.9902 247.211V259.936C51.9902 261.39 52.5674 262.785 53.5948 263.813C54.6222 264.841 56.0157 265.419 57.4687 265.419H253.627C255.08 265.419 256.473 264.841 257.5 263.813C258.528 262.785 259.105 261.39 259.105 259.936V247.211H51.9902Z" fill="#25466F"/>
<path d="M62.3993 256.312H251.892V254.691L62.3993 254.691V256.312Z" fill="#111010"/>
<path d="M213.732 261.636H216.666V250.153H213.732V261.636Z" fill="#2F2E41"/>
<path d="M151.99 225.932C151.99 225.932 151.807 235.191 154.656 235.904H205.179C205.179 235.904 207.669 236.794 207.486 230.379L207.845 217.745L213.713 212.932C213.713 212.932 219.691 218.908 230.41 213.773C233.757 212.139 236.73 209.828 239.139 206.987C244.49 200.773 255.696 186.037 256.792 170.375C256.518 170.278 248.331 167.116 244.618 161.908C244.543 161.802 244.444 161.716 244.329 161.656C244.214 161.597 244.087 161.566 243.957 161.566C243.828 161.566 243.7 161.597 243.586 161.656C243.471 161.716 243.372 161.802 243.297 161.908L225.65 185.507C225.65 185.507 223.873 173.202 219.788 163.607C217.548 158.338 214.608 153.86 210.883 152.746L194.947 147.263C194.947 147.263 195.628 148.652 194.648 151.058L190.771 157.205L185.104 151.454L178.353 158.271L166.885 147.44C166.885 147.44 147.175 155.42 145.038 162.188C145.038 162.188 141.13 168.95 140.418 192.458C140.424 192.458 139.889 223.794 151.99 225.932Z" fill="#25466F"/>
<path opacity="0.2" d="M219.788 163.607C221.846 173.738 222.345 193.457 222.43 197.721C222.432 198.374 222.663 199.005 223.081 199.506C223.885 200.438 224.494 199.975 224.865 199.421C225.149 198.974 225.3 198.457 225.303 197.928C225.415 195.918 225.781 193.931 226.393 192.013C226.836 190.599 227.515 189.271 228.402 188.084L237.039 176.455C242.195 168.974 247.174 170.4 247.174 170.4C255.696 172.702 256.786 170.4 256.786 170.4C256.512 170.302 248.325 167.14 244.612 161.932C244.537 161.826 244.438 161.74 244.323 161.681C244.208 161.621 244.081 161.59 243.951 161.59C243.822 161.59 243.694 161.621 243.579 161.681C243.465 161.74 243.366 161.826 243.291 161.932L225.65 185.507C225.65 185.507 223.873 173.202 219.788 163.607Z" fill="black"/>
<path opacity="0.2" d="M230.422 213.773C230.422 213.773 218.352 211.513 214.261 206.883L213.725 212.932C213.725 212.932 220.434 218.884 230.422 213.773Z" fill="black"/>
<path opacity="0.2" d="M187.928 217.209C187.928 217.209 184.154 217.385 181.062 203.673C178.29 205.058 175.161 205.56 172.096 205.11C170.848 204.934 166.891 201.729 166.891 201.729C166.891 201.729 175.048 163.961 153.645 154.098L148.575 157.686L146.329 159.946C146.329 159.946 160.53 165.758 159.282 179.647L158.923 194.072C158.923 194.072 151.807 198.525 151.618 201.193C151.618 201.193 151.265 205.287 157.492 203.685C157.492 203.685 152.337 207.669 155.532 211.373C155.532 211.373 159.446 203.868 164.432 206.895L168.875 209.027C168.875 209.027 169.588 209.917 175.285 210.276C175.285 210.276 178.804 209.563 181.05 213.48C182.125 215.15 183.681 216.454 185.512 217.221C185.512 217.221 177.513 230.574 151.978 225.944C151.978 225.944 151.88 235.916 154.644 235.916H171.548C171.548 235.916 166.161 234.936 167.116 232.669C167.952 232.223 168.639 231.543 169.094 230.712C169.549 229.881 169.753 228.936 169.679 227.991C169.679 227.991 177.61 227.65 187.928 217.209Z" fill="black"/>
<path d="M181.19 204.239C181.19 204.239 183.625 215.814 187.928 217.209C187.928 217.209 202.385 215.296 207.188 205.677C207.188 205.677 207.06 203.191 202.775 206.773C203.657 205.975 209.026 201.053 207.188 200.073C207.188 200.073 206.123 198.349 201.996 202.735C202.282 202.375 207.413 195.869 205.989 193.53C205.989 193.53 204.51 191.702 201.405 195.284C203.116 192.683 204.99 189.193 203.183 188.724C203.183 188.724 201.582 187.383 195.848 193.798C195.848 193.798 191.039 200.621 189.444 199.354C189.444 199.354 192.159 194.023 190.728 191.654C190.633 191.48 190.496 191.333 190.329 191.226C190.162 191.12 189.97 191.057 189.773 191.045C189.534 191.032 189.298 191.101 189.103 191.239C188.135 191.903 186.504 193.938 184.379 199.914C184.373 199.939 183.223 204.794 181.19 204.239Z" fill="#F9B499"/>
<path d="M206.725 204.94C206.725 204.94 202.653 211.22 200.029 210.02C200.029 210.02 198.897 210.02 202.635 206.883C202.653 206.883 205.137 204.532 206.725 204.94Z" fill="#F7A48B"/>
<path d="M206.725 200.012C206.725 200.012 200.516 206.713 199.116 206.414C197.716 206.116 201.983 202.759 201.983 202.759C201.983 202.759 205.057 199.092 206.725 200.012Z" fill="#F7A48B"/>
<path d="M205.447 193.171C205.447 193.171 199.652 201.736 197.534 201.407C197.534 201.407 196.438 201.029 199.622 197.752C199.603 197.745 203.043 192.208 205.447 193.171Z" fill="#F7A48B"/>
<path d="M188.306 200.804C190.174 204.544 193.644 199.348 193.644 199.348C196.109 195.546 203.183 188.718 203.183 188.718C203.183 188.718 201.582 187.377 195.848 193.792C195.848 193.792 191.039 200.615 189.444 199.348C189.444 199.348 192.159 194.017 190.728 191.648C190.633 191.474 190.496 191.327 190.329 191.22C190.162 191.114 189.97 191.051 189.773 191.038C189.967 192.135 189.389 193.938 188.902 195.181C188.352 196.561 188.095 198.04 188.147 199.524C188.149 199.955 188.202 200.385 188.306 200.804Z" fill="#F7A48B"/>
<path opacity="0.2" d="M207.571 231.555C207.571 231.555 203.03 227.12 189.115 232.663L181.202 235.904H205.203C205.203 235.904 207.523 236.922 207.571 231.555Z" fill="black"/>
<path d="M206.05 235.904L207.571 247.211H150.997L154.656 235.904H206.05Z" fill="#2F2E41"/>
<path d="M263.877 152.819C263.877 152.819 267.274 149.456 262.83 148.652L253.834 149.334C253.834 149.334 245.032 149.395 244.946 162.401C244.946 162.401 248.538 167.354 256.762 170.375C256.762 170.375 259.58 166.074 261.236 165.289C261.236 165.289 264.072 165.812 265.095 163.199C265.095 163.199 267.25 160.671 264.638 158.935C264.638 158.935 265.162 156.498 263.853 155.45C263.877 155.438 264.924 154.476 263.877 152.819Z" fill="#F9B499"/>
<path d="M260.743 151.077C260.743 151.077 257.748 153.745 254.57 153.867C254.525 153.866 254.481 153.875 254.44 153.894C254.399 153.912 254.362 153.938 254.332 153.972C254.302 154.005 254.28 154.045 254.266 154.087C254.253 154.13 254.248 154.175 254.254 154.22C254.515 156.139 255.471 165.276 250.894 167.384C250.894 167.384 254.467 169.882 256.786 170.375C256.786 170.375 259.434 166.775 261.26 165.289C261.26 165.289 257.608 165.727 257.693 163.632C257.693 163.632 255.867 163.23 256.786 160.726C256.786 160.726 254.229 160.019 256.53 156.906C256.554 156.875 256.569 156.839 256.575 156.801C256.58 156.763 256.576 156.723 256.563 156.687C256.55 156.651 256.527 156.618 256.498 156.593C256.469 156.567 256.434 156.549 256.396 156.541C255.83 156.443 254.978 156.047 256.08 154.476C257.998 153.954 259.658 152.744 260.743 151.077Z" fill="#F7A48B"/>
<path d="M261.26 153.605C260.432 154.159 259.689 154.738 258.91 155.286C258.527 155.566 258.131 155.822 257.742 156.096C257.352 156.37 256.938 156.608 256.524 156.906C257.517 156.775 258.461 156.391 259.263 155.792C259.668 155.503 260.044 155.174 260.383 154.811C260.734 154.454 261.029 154.048 261.26 153.605Z" fill="#F7A48B"/>
<path d="M261.26 159.014C260.487 159.325 259.769 159.587 259.026 159.855L257.918 160.257C257.532 160.392 257.154 160.549 256.786 160.726C257.609 160.827 258.444 160.729 259.221 160.44C259.615 160.297 259.991 160.109 260.341 159.879C260.704 159.658 261.017 159.363 261.26 159.014Z" fill="#F7A48B"/>
<path d="M261.96 162.237C261.221 162.363 260.491 162.535 259.775 162.754C259.422 162.87 259.069 162.98 258.722 163.126C258.363 163.261 258.019 163.43 257.693 163.632C258.459 163.68 259.227 163.585 259.957 163.351C260.321 163.234 260.675 163.09 261.016 162.919C261.369 162.749 261.688 162.518 261.96 162.237Z" fill="#F7A48B"/>
<path d="M265.953 92.9612L258.143 149.011L256.08 149.164L263.64 92.9612H265.953Z" fill="#2F2E41"/>
<path d="M71.4873 162.901H108.467C110.195 162.901 111.595 161.499 111.595 159.769V135.585C111.595 133.856 110.195 132.454 108.467 132.454H71.4873C69.7593 132.454 68.3585 133.856 68.3585 135.585V159.769C68.3585 161.499 69.7593 162.901 71.4873 162.901Z" fill="#111010"/>
<path d="M93.6263 140.434V154.086L81.3485 147.257L93.6263 140.434Z" fill="#E6E7E8"/>
<path d="M71.4873 201.407H108.467C110.195 201.407 111.595 200.005 111.595 198.275V174.091C111.595 172.362 110.195 170.96 108.467 170.96H71.4873C69.7593 170.96 68.3585 172.362 68.3585 174.091V198.275C68.3585 200.005 69.7593 201.407 71.4873 201.407Z" fill="#111010"/>
<path d="M93.6263 178.94V192.592L81.3485 185.763L93.6263 178.94Z" fill="#E6E7E8"/>
<path d="M71.4873 238.804H108.467C110.195 238.804 111.595 237.402 111.595 235.673V211.488C111.595 209.759 110.195 208.357 108.467 208.357H71.4873C69.7593 208.357 68.3585 209.759 68.3585 211.488V235.673C68.3585 237.402 69.7593 238.804 71.4873 238.804Z" fill="#111010"/>
<path d="M93.6263 216.338V229.989L81.3485 223.16L93.6263 216.338Z" fill="#E6E7E8"/>
<path d="M173.43 129.862C175.53 129.461 176.814 126.934 176.296 124.218C175.779 121.501 173.657 119.624 171.557 120.024C169.456 120.425 168.173 122.952 168.69 125.668C169.208 128.385 171.33 130.263 173.43 129.862Z" fill="#F9B499"/>
<path d="M191.574 133.429V145.18L185.317 148.652L174.36 143.712L173.989 123.274L191.574 133.429Z" fill="#F9B499"/>
<path d="M191.574 137.656V145.18L187.484 147.44C187.484 147.44 174.701 141.835 178.122 133.429C178.146 133.423 182.9 140.952 191.574 137.656Z" fill="#F7A48B"/>
<path d="M187.508 138.503C195.136 138.503 201.32 129.923 201.32 119.338C201.32 108.754 195.136 100.174 187.508 100.174C179.88 100.174 173.696 108.754 173.696 119.338C173.696 129.923 179.88 138.503 187.508 138.503Z" fill="#F9B499"/>
<path d="M169.697 121.148C169.697 121.148 171.87 118.486 174.719 121.148C174.719 121.148 176.028 115.397 175.23 112.193C176.171 111.57 176.947 110.728 177.491 109.739C178.035 108.75 178.331 107.644 178.353 106.515C178.353 106.515 183.564 111.261 188.299 108.385C188.299 108.385 185.627 106.314 186.966 104.316C186.966 104.316 190.235 111.529 195.634 109.726C195.634 109.726 194.307 108.654 194.91 107.191C194.91 107.191 198.191 111.785 200.285 112.065L200.991 115.227C200.991 115.227 203.31 114.709 204.278 112.826C204.93 111.559 204.972 109.689 203.316 106.96C203.316 106.96 205.849 101.758 201.308 99.0834C201.308 99.0834 199.043 97.4812 193.169 97.865C193.169 97.865 188.908 89.9884 181.159 92.2545C181.159 92.2545 176.758 92.3946 175.961 100.174C175.961 100.174 167.548 98.5656 166.081 107.648C165.988 108.036 165.935 108.432 165.923 108.83C165.856 110.688 166.234 114.776 169.697 121.148Z" fill="#2F2E41"/>
<path opacity="0.2" d="M169.697 121.148C169.697 121.148 171.87 118.486 174.719 121.148C174.719 121.148 176.028 115.397 175.23 112.193C176.171 111.57 176.947 110.728 177.491 109.739C178.035 108.75 178.331 107.644 178.353 106.515C178.353 106.515 183.564 111.261 188.299 108.385C188.299 108.385 185.627 106.314 186.966 104.316C186.966 104.316 190.235 111.529 195.634 109.726C195.634 109.726 194.307 108.654 194.91 107.192C194.91 107.192 198.191 111.785 200.285 112.065L200.991 115.227C200.991 115.227 203.31 114.709 204.278 112.826C203.841 111.839 203.212 110.948 202.429 110.206C201.645 109.464 200.722 108.884 199.713 108.501C199.713 108.501 204.978 104.688 201.308 102.154C201.308 102.154 199.944 100.393 194.222 102.574C194.222 102.574 189.353 92.6078 182.559 100.137C182.559 100.137 181.951 96.2568 184.696 94.7887C184.696 94.7887 177.629 93.7896 178 101.27C178 101.27 173.928 100.137 172.467 103.707C172.467 103.707 174.597 103.841 173.684 105.376C173.684 105.376 167.652 104.109 165.923 108.763C165.856 110.688 166.234 114.776 169.697 121.148Z" fill="black"/>
<path d="M190.777 157.199L185.104 151.46L178.353 158.271L166.879 147.44L169.63 143.62C170.008 143.099 170.567 142.739 171.197 142.61C171.827 142.482 172.482 142.594 173.033 142.926L174.348 143.712L185.305 148.652L191.745 145.131C191.958 145.014 192.199 144.958 192.442 144.966C192.685 144.975 192.922 145.048 193.127 145.18C194.277 145.917 196.213 147.738 194.648 151.058L190.777 157.199Z" fill="#25466F"/>
<path opacity="0.2" d="M190.777 157.199L185.104 151.46L178.353 158.271L166.879 147.44L169.63 143.62C170.008 143.099 170.567 142.739 171.197 142.61C171.827 142.482 172.482 142.594 173.033 142.926L174.348 143.712L185.305 148.652L191.745 145.131C191.958 145.014 192.199 144.958 192.442 144.966C192.685 144.975 192.922 145.048 193.127 145.18C194.277 145.917 196.213 147.738 194.648 151.058L190.777 157.199Z" fill="black"/>
<path d="M105.861 367.693C105.713 367.693 105.565 367.662 105.429 367.602C102.203 366.201 100.024 364.038 98.9525 361.175C97.0472 356.101 99.0499 349.954 101.065 345.69C102.096 343.572 103.344 341.567 104.79 339.708C111.991 330.253 109.696 323.26 106.501 318.996C104.921 316.943 102.918 315.256 100.626 314.049C81.2876 303.62 85.3173 282.75 85.3599 282.537C85.4323 282.269 85.6042 282.038 85.8404 281.893C86.0767 281.747 86.3595 281.697 86.6313 281.753C86.903 281.809 87.1432 281.967 87.3029 282.194C87.4625 282.421 87.5296 282.7 87.4904 282.975C87.3261 283.767 83.759 302.469 101.661 312.137C104.226 313.489 106.467 315.382 108.229 317.686C111.882 322.505 114.542 330.479 106.519 341.011C105.162 342.747 103.993 344.622 103.031 346.604C101.205 350.49 99.3786 356.034 100.986 360.395C101.844 362.68 103.627 364.428 106.294 365.592C106.525 365.689 106.715 365.864 106.832 366.087C106.949 366.309 106.984 366.565 106.933 366.811C106.882 367.057 106.748 367.278 106.552 367.435C106.357 367.593 106.112 367.678 105.861 367.675V367.693Z" fill="#111010"/>
<path d="M114.669 367.243C114.523 367.244 114.377 367.214 114.242 367.157C114.107 367.099 113.985 367.014 113.884 366.907C113.786 366.804 113.709 366.683 113.657 366.55C113.606 366.417 113.581 366.275 113.584 366.132C113.588 365.99 113.619 365.849 113.677 365.719C113.735 365.588 113.817 365.471 113.921 365.372C116.477 362.936 117.768 360.328 117.762 357.63C117.762 353.451 114.688 349.662 112.119 347.225C110.362 345.593 108.392 344.208 106.263 343.107C93.0236 336.041 92.9445 325.819 94.0889 320.348C94.7009 317.597 95.8602 314.997 97.4977 312.703C107.992 297.474 97.5525 281.062 97.4429 280.898C97.2879 280.656 97.2342 280.362 97.2934 280.081C97.3527 279.799 97.52 279.552 97.7594 279.393C97.8788 279.315 98.0125 279.261 98.1528 279.234C98.2931 279.208 98.4373 279.209 98.577 279.239C98.7167 279.268 98.8492 279.325 98.967 279.406C99.0847 279.487 99.1853 279.59 99.2629 279.71C99.3786 279.887 110.622 297.461 99.2629 313.934C97.8029 315.995 96.7682 318.327 96.2194 320.793C95.0019 326.738 95.915 335.109 107.304 341.188C109.603 342.383 111.73 343.883 113.629 345.647C116.508 348.376 119.947 352.677 119.953 357.63C119.953 360.944 118.437 364.081 115.436 366.944C115.335 367.042 115.214 367.119 115.083 367.17C114.951 367.221 114.811 367.246 114.669 367.243Z" fill="#111010"/>
<path d="M413.117 78.7682C414.532 77.7181 416.468 77.7181 417.883 78.7682L421.363 81.3496L424.868 84.1078C426.155 85.1206 426.695 86.8158 426.23 88.3864L425.393 91.2148L423.492 97.2091C422.965 98.8709 421.423 100 419.68 100H415.5H411.32C409.577 100 408.035 98.8709 407.508 97.2091L405.607 91.2148L404.77 88.3864C404.305 86.8158 404.845 85.1206 406.132 84.1078L409.637 81.3496L413.117 78.7682Z" fill="#B334BE"/>
<path d="M446.117 397.768C447.532 396.718 449.468 396.718 450.883 397.768L454.363 400.35L457.868 403.108C459.155 404.121 459.695 405.816 459.23 407.386L458.393 410.215L456.492 416.209C455.965 417.871 454.423 419 452.68 419H448.5H444.32C442.577 419 441.035 417.871 440.508 416.209L438.607 410.215L437.77 407.386C437.305 405.816 437.845 404.121 439.132 403.108L442.637 400.35L446.117 397.768Z" fill="#B334BE" fill-opacity="0.83"/>
<path d="M28.1167 423.768C29.5321 422.718 31.4679 422.718 32.8833 423.768L36.3627 426.35L39.8682 429.108C41.1554 430.121 41.695 431.816 41.2303 433.386L40.3933 436.215L38.4924 442.209C37.9654 443.871 36.4229 445 34.6795 445H30.5H26.3205C24.5771 445 23.0346 443.871 22.5076 442.209L20.6067 436.215L19.7697 433.386C19.305 431.816 19.8447 430.121 21.1318 429.108L24.6373 426.35L28.1167 423.768Z" fill="#B334BE" fill-opacity="0.81"/>
</svg>
