<svg width="132" height="150" viewBox="0 0 132 150" fill="none" xmlns="http://www.w3.org/2000/svg" xmlns:xlink="http://www.w3.org/1999/xlink">
<path d="M128.753,18.504L70.906,0.858C69.039,0.289 67.052,0 65,0C62.948,0 60.961,0.289 59.094,0.858L1.246,18.504C0.233,18.816 -0.421,19.532 -0.421,20.335C-0.421,21.138 0.233,21.854 1.246,22.166L28.024,30.334L28.024,52.959C28.031,64.658 32.008,75.894 39.223,84.594C42.69,88.77 46.68,92.087 51.083,94.448C55.753,96.957 60.595,98.228 65.475,98.228C70.351,98.228 75.194,96.957 79.867,94.448C86.487,90.89 92.183,85.177 96.339,77.927C100.646,70.403 102.923,61.769 102.925,52.959L102.925,30.045L116.18,26.001L116.18,44.807C114.363,45.037 112.955,46.593 112.955,48.469C112.955,50.102 114.024,51.517 115.554,51.988L112.743,70.537C112.674,70.999 112.808,71.466 113.113,71.822C113.418,72.175 113.861,72.38 114.328,72.38L124.955,72.38C125.421,72.38 125.864,72.175 126.17,71.82C126.474,71.468 126.608,70.999 126.54,70.535L123.729,51.988C125.259,51.517 126.328,50.103 126.328,48.469C126.328,46.593 124.919,45.037 123.102,44.807L123.102,23.89L128.754,22.166C129.767,21.854 130.421,21.135 130.421,20.335C130.421,19.534 129.766,18.815 128.753,18.504ZM65.475,87.267C62.424,87.267 59.324,86.434 56.261,84.79C51.517,82.256 47.206,77.886 44.121,72.482C42.699,69.998 41.544,67.296 40.685,64.441C58.52,61.284 69.545,49.975 75.765,40.72C78.765,46.806 83.869,54.417 91.652,57.902C90.737,65.221 87.776,72.202 83.293,77.593C80.768,80.641 77.793,83.129 74.687,84.792C71.623,86.434 68.523,87.267 65.475,87.267Z" fill="#EDEDED"/>
<path d="M99.508,92.06L99.213,91.875L66.831,120.374L34.447,91.875L34.153,92.059C23.357,98.808 11.882,117.153 11.882,137.858L11.882,138.138L12.13,138.27C12.351,138.388 34.657,150 66.831,150C99.004,150 121.311,138.388 121.531,138.27L121.779,138.138L121.779,137.858C121.78,117.153 110.304,98.808 99.508,92.06Z" fill="#EDEDED"/>
</svg>
