<svg width="82" height="82" viewBox="0 0 82 82" fill="none" xmlns="http://www.w3.org/2000/svg" xmlns:xlink="http://www.w3.org/1999/xlink">
<path d="M13.19,82C19.827,82 23.35,76.016 24.386,72.481C24.403,72.425 24.418,72.368 24.432,72.31C26.847,62.215 30.693,46.215 33.542,34.576L43.735,34.576C45.652,34.576 47.206,33.008 47.206,31.072C47.206,29.137 45.652,27.568 43.735,27.568L35.267,27.568C36.179,23.901 36.846,21.29 37.109,20.398L37.401,19.401C38.477,15.694 40.996,7.01 44.893,7.01C48.506,7.01 49.045,12.628 49.069,12.899C49.223,14.823 50.885,16.276 52.795,16.11C54.707,15.962 56.137,14.276 55.99,12.347C55.665,8.076 52.926,0 44.892,0C35.795,0 32.38,11.771 30.739,17.429L30.46,18.384C30.127,19.504 29.252,22.954 28.111,27.568L15.967,27.568C14.049,27.568 12.496,29.137 12.496,31.072C12.496,33.008 14.049,34.576 15.967,34.576L26.391,34.576C22.827,49.169 18.222,68.418 17.715,70.537C17.526,71.092 16.103,74.991 13.192,74.991C8.746,74.991 6.822,68.692 6.806,68.645C6.273,66.787 4.353,65.712 2.507,66.254C0.666,66.793 -0.396,68.736 0.138,70.595C1.352,74.83 5.467,82 13.19,82Z" fill="#FFFFFF"/>
<path d="M78.033,70C80.189,70 82,68.532 82,66.196C82,65.11 81.547,64.131 80.583,63.044L72.989,54.675L80.358,46.414C81.038,45.599 81.547,44.729 81.547,43.588C81.547,41.521 79.789,40 77.522,40C75.992,40 74.803,40.924 73.781,42.121L68.057,49.293L62.446,42.12C61.311,40.763 60.122,40 58.422,40C56.266,40 54.454,41.469 54.454,43.806C54.454,44.891 54.908,45.87 55.87,46.956L62.956,54.782L55.189,63.586C54.452,64.401 54,65.271 54,66.412C54,68.479 55.757,69.999 58.023,69.999C59.554,69.999 60.744,69.075 61.764,67.879L67.884,60.163L74.005,67.879C75.143,69.239 76.333,70 78.033,70Z" fill="#FFFFFF"/>
</svg>
