<svg width="128" height="94" viewBox="0 0 128 94" fill="none" xmlns="http://www.w3.org/2000/svg" xmlns:xlink="http://www.w3.org/1999/xlink">
<path d="M3.695,79.086L87.339,79.086L87.339,66.036C85.594,63.764 84.427,61.04 84.042,58.069L18.816,58.069C17.633,58.069 16.673,57.122 16.673,55.957C16.673,54.792 17.633,53.845 18.816,53.845L84.042,53.845C85.107,45.602 92.261,39.208 100.907,39.208C110.278,39.208 117.905,46.723 117.905,55.957C117.905,59.744 116.634,63.225 114.476,66.036L114.476,79.086L124.305,79.086C126.345,79.086 128,77.455 128,75.445L128,3.641C128,1.631 126.345,0 124.305,0L3.695,0C1.655,0 0,1.631 0,3.641L0,75.445C0,77.455 1.655,79.086 3.695,79.086ZM41.873,11.433L86.127,11.433C87.353,11.433 88.344,12.409 88.344,13.618C88.344,14.827 87.353,15.803 86.127,15.803L41.873,15.803C40.647,15.803 39.656,14.827 39.656,13.618C39.656,12.409 40.647,11.433 41.873,11.433ZM18.816,25.474L109.184,25.474C110.367,25.474 111.327,26.42 111.327,27.585C111.327,28.751 110.367,29.697 109.184,29.697L18.816,29.697C17.633,29.697 16.673,28.751 16.673,27.585C16.673,26.42 17.633,25.474 18.816,25.474Z" fill="#EAEAEA"/>
<path d="M91.108,69.633L91.108,79.086L91.108,91.815C91.108,93.141 92.201,94 93.34,94C93.916,94 94.492,93.782 94.951,93.301L99.281,88.698C99.725,88.232 100.316,87.999 100.907,87.999C101.498,87.999 102.09,88.232 102.533,88.698L106.864,93.301C107.322,93.782 107.898,94 108.475,94C109.613,94 110.707,93.141 110.707,91.815L110.707,79.086L110.707,69.633C107.943,71.57 104.558,72.706 100.907,72.706C97.256,72.706 93.886,71.57 91.108,69.633Z" transform="rotate(0 100.907 81.817)" fill="#EAEAEA"/>
<path d="M112.717,60.079C113.205,58.739 113.471,57.312 113.471,55.957C113.471,49.126 107.839,43.577 100.907,43.577C93.975,43.577 88.344,49.126 88.344,55.957C88.344,57.85 88.92,60.181 89.911,61.943C90.28,62.599 90.709,63.225 91.197,63.793C93.502,66.56 97.005,68.323 100.907,68.323C104.809,68.323 108.312,66.56 110.618,63.793C111.505,62.73 112.229,61.448 112.717,60.079Z" transform="rotate(0 100.907 55.95)" fill="#EAEAEA"/>
</svg>
