<svg width="216" height="66" viewBox="0 0 216 66" fill="none" xmlns="http://www.w3.org/2000/svg">
<path d="M78.71 57.74V60H71.03V46.06H78.31V48.24H73.53V51.5H77.33V53.62H73.53V57.74H78.71ZM84.3472 60.28C83.5472 60.28 82.8472 60.0633 82.2472 59.63C81.6539 59.1967 81.1939 58.5867 80.8672 57.8C80.5472 57.0067 80.3872 56.0867 80.3872 55.04C80.3872 53.3733 80.7239 52.0833 81.3972 51.17C82.0772 50.2567 83.0739 49.8 84.3872 49.8C85.0739 49.8 85.6505 49.97 86.1172 50.31C86.5839 50.65 86.8872 51.1333 87.0272 51.76L86.8472 50.3V44.8H89.2072V60H87.0272V57.96C86.8405 58.6733 86.5172 59.24 86.0572 59.66C85.5972 60.0733 85.0272 60.28 84.3472 60.28ZM84.9272 58.3C85.2605 58.3 85.5672 58.1867 85.8472 57.96C86.1339 57.7333 86.3605 57.38 86.5272 56.9C86.7005 56.4133 86.7872 55.8067 86.7872 55.08C86.7872 54.0267 86.6372 53.22 86.3372 52.66C86.0372 52.1 85.5872 51.82 84.9872 51.82C84.6405 51.82 84.3139 51.9233 84.0072 52.13C83.7072 52.3367 83.4572 52.68 83.2572 53.16C83.0639 53.64 82.9672 54.2667 82.9672 55.04C82.9672 55.7533 83.0505 56.3533 83.2172 56.84C83.3905 57.3267 83.6239 57.6933 83.9172 57.94C84.2172 58.18 84.5539 58.3 84.9272 58.3ZM100.138 50.04V60H97.8777L97.8277 58.71C97.5343 59.17 97.171 59.54 96.7377 59.82C96.311 60.1 95.7643 60.24 95.0977 60.24C94.111 60.24 93.3743 59.9267 92.8877 59.3C92.401 58.6733 92.1577 57.78 92.1577 56.62V50.04H94.6577V56.4C94.6577 56.98 94.761 57.4367 94.9677 57.77C95.181 58.0967 95.5177 58.26 95.9777 58.26C96.291 58.26 96.571 58.1833 96.8177 58.03C97.071 57.87 97.271 57.65 97.4177 57.37C97.5643 57.0833 97.6377 56.76 97.6377 56.4V50.04H100.138ZM107.017 60.24C105.997 60.24 105.147 60.01 104.467 59.55C103.787 59.0833 103.284 58.46 102.957 57.68C102.637 56.9 102.477 56.0267 102.477 55.06C102.477 54.1133 102.657 53.24 103.017 52.44C103.377 51.64 103.91 51 104.617 50.52C105.324 50.04 106.17 49.8 107.157 49.8C107.77 49.8 108.304 49.8667 108.757 50C109.217 50.1267 109.657 50.36 110.077 50.7L109.257 52.82C109.064 52.5333 108.777 52.3067 108.397 52.14C108.024 51.9667 107.657 51.88 107.297 51.88C105.844 51.88 105.117 52.9333 105.117 55.04C105.117 56.14 105.294 56.9433 105.647 57.45C106.007 57.95 106.557 58.2 107.297 58.2C107.744 58.2 108.15 58.1167 108.517 57.95C108.89 57.7833 109.184 57.58 109.397 57.34L110.157 59.12C110.01 59.28 109.787 59.4467 109.487 59.62C109.194 59.7867 108.834 59.93 108.407 60.05C107.98 60.1767 107.517 60.24 107.017 60.24ZM114.12 60.28C113.527 60.28 113.027 60.1467 112.62 59.88C112.214 59.6133 111.907 59.2533 111.7 58.8C111.5 58.3467 111.4 57.84 111.4 57.28C111.4 56.7933 111.56 56.31 111.88 55.83C112.207 55.3433 112.784 54.93 113.61 54.59C114.437 54.25 115.554 54.08 116.96 54.08V53.62C116.96 53.0733 116.827 52.65 116.56 52.35C116.3 52.05 115.84 51.9 115.18 51.9C114.66 51.9 114.15 51.99 113.65 52.17C113.157 52.3433 112.794 52.56 112.56 52.82L111.76 50.9C112.214 50.5933 112.777 50.3333 113.45 50.12C114.124 49.9067 114.84 49.8 115.6 49.8C116.554 49.8 117.307 49.9467 117.86 50.24C118.42 50.5333 118.814 50.9467 119.04 51.48C119.267 52.0133 119.38 52.6733 119.38 53.46V60H117.24L117.06 58.58C116.707 59.1533 116.287 59.58 115.8 59.86C115.32 60.14 114.76 60.28 114.12 60.28ZM115.18 58.36C115.487 58.36 115.81 58.2367 116.15 57.99C116.49 57.7433 116.76 57.4333 116.96 57.06V55.64C116.867 55.6267 116.707 55.62 116.48 55.62C115.807 55.62 115.204 55.7333 114.67 55.96C114.144 56.18 113.88 56.54 113.88 57.04C113.88 57.5133 113.984 57.8533 114.19 58.06C114.404 58.26 114.734 58.36 115.18 58.36ZM125.342 60.3C124.602 60.3 124.022 60.1733 123.602 59.92C123.182 59.6667 122.885 59.2867 122.712 58.78C122.545 58.2667 122.462 57.5933 122.462 56.76V52.14H121.162V50.04H122.562L122.702 47.94L124.882 47V50.04H127.342V52.14H124.882V56.7C124.882 57.26 124.959 57.6567 125.112 57.89C125.265 58.1233 125.495 58.24 125.802 58.24C126.075 58.24 126.372 58.17 126.692 58.03C127.019 57.8833 127.289 57.72 127.502 57.54L127.982 59.56C127.689 59.7667 127.265 59.94 126.712 60.08C126.165 60.2267 125.709 60.3 125.342 60.3ZM129.755 45.76H132.555V48.42H129.755V45.76ZM129.855 50.04H132.455V60H129.855V50.04ZM139.401 60.2C138.427 60.2 137.597 59.9933 136.911 59.58C136.224 59.1667 135.701 58.5733 135.341 57.8C134.981 57.02 134.801 56.0867 134.801 55C134.801 53.9133 134.984 52.98 135.351 52.2C135.724 51.42 136.261 50.8267 136.961 50.42C137.667 50.0067 138.507 49.8 139.481 49.8C140.447 49.8 141.267 50.0133 141.941 50.44C142.621 50.86 143.134 51.46 143.481 52.24C143.827 53.02 144.001 53.94 144.001 55C144.001 56.0533 143.821 56.9733 143.461 57.76C143.101 58.54 142.574 59.1433 141.881 59.57C141.194 59.99 140.367 60.2 139.401 60.2ZM139.441 58.2C140.061 58.2 140.531 57.93 140.851 57.39C141.177 56.85 141.341 56.0533 141.341 55C141.341 53.94 141.177 53.14 140.851 52.6C140.531 52.0533 140.061 51.78 139.441 51.78C138.787 51.78 138.294 52.0367 137.961 52.55C137.627 53.0633 137.461 53.88 137.461 55C137.461 56.12 137.627 56.9333 137.961 57.44C138.294 57.9467 138.787 58.2 139.441 58.2ZM151.62 49.8C152.613 49.8 153.36 50.1167 153.86 50.75C154.366 51.3767 154.62 52.2667 154.62 53.42V60H152.06V53.64C152.06 53.0733 151.94 52.6233 151.7 52.29C151.46 51.95 151.106 51.78 150.64 51.78C150.326 51.78 150.033 51.86 149.76 52.02C149.493 52.18 149.28 52.4033 149.12 52.69C148.96 52.97 148.88 53.2867 148.88 53.64V60H146.32V50.04H148.64L148.69 51.35C149.376 50.3167 150.353 49.8 151.62 49.8Z" fill="#26282F"/>
<path d="M30.0985 47.791L21.5006 23.8998C21.9363 23.5538 22.121 22.994 22.1374 22.6318V10.9081C22.1374 10.6446 21.9205 10.4471 21.6682 10.4471H18.3324V4.40438C18.3324 2.26343 16.8571 2.01676 16.7066 2H13.489C12.8522 2.08262 11.6456 2.67533 11.6456 4.40438C11.6456 5.70475 11.6456 8.86649 11.6456 10.4471H8.29391C8.02578 10.4471 7.82468 10.6608 7.82468 10.9081V11.3691V22.6318C7.82468 22.6647 7.82468 22.7144 7.84174 22.7467C7.85819 22.7797 8.04284 23.4879 8.61262 23.916L0.0817564 47.8401C0.0653028 47.9227 -0.371021 49.817 0.953186 51.9723L2.1092 54.2455L1.67349 56.3691C1.45593 57.4731 1.48884 57.6204 1.63997 57.818C1.72406 57.9335 1.87458 58 2.02571 58C2.44497 58 2.57904 57.6049 2.78014 56.9636L3.11591 55.9429C3.18295 55.9584 3.23292 55.9758 3.31701 55.9758C3.50105 55.9596 3.66924 55.8435 3.73627 55.6794L14.7138 27.3094H15.4512H15.5347L26.4958 55.6477C26.5616 55.8279 26.7304 55.9435 26.9151 55.9435C27.0656 55.9596 27.2332 55.8782 27.3173 55.7621L27.7694 57.0133C27.8194 57.1457 27.92 57.2606 28.0546 57.2941C28.0881 57.3103 28.4398 57.4252 28.842 57.4252C29.5294 57.4252 30.0156 57.0804 30.1662 56.4709C30.1826 56.3877 30.1826 56.2895 30.1503 56.2075L28.9267 52.5842L29.2277 51.9926C30.6007 49.817 30.132 47.9227 30.0985 47.791Z" fill="#26282F" fill-opacity="0.3"/>
<path d="M98.7454 43.396C97.6294 43.396 96.5734 43.264 95.5774 43C94.5934 42.736 93.7294 42.394 92.9854 41.974C92.2414 41.554 91.6534 41.116 91.2214 40.66L93.0574 36.88C93.3334 37.24 93.7534 37.624 94.3174 38.032C94.8814 38.44 95.5234 38.788 96.2434 39.076C96.9754 39.364 97.7014 39.508 98.4214 39.508C99.3694 39.508 100.161 39.25 100.797 38.734C101.445 38.206 101.769 37.468 101.769 36.52C101.769 35.908 101.619 35.38 101.319 34.936C101.031 34.48 100.641 34.078 100.149 33.73C99.6694 33.37 98.9254 32.884 97.9174 32.272C96.5374 31.432 95.4574 30.718 94.6774 30.13C93.8974 29.53 93.2194 28.75 92.6434 27.79C92.0794 26.818 91.7974 25.648 91.7974 24.28C91.7974 22.948 92.0794 21.772 92.6434 20.752C93.2194 19.72 94.0654 18.916 95.1814 18.34C96.2974 17.764 97.6414 17.476 99.2134 17.476C101.769 17.476 103.905 18.256 105.621 19.816L103.605 23.488C103.401 23.2 103.095 22.888 102.687 22.552C102.279 22.204 101.787 21.91 101.211 21.67C100.635 21.418 100.029 21.292 99.3934 21.292C98.4694 21.292 97.7494 21.562 97.2334 22.102C96.7294 22.63 96.4774 23.296 96.4774 24.1C96.4774 24.712 96.6274 25.258 96.9274 25.738C97.2394 26.206 97.6414 26.626 98.1334 26.998C98.6374 27.37 99.3094 27.808 100.149 28.312C101.673 29.212 102.837 29.968 103.641 30.58C104.445 31.192 105.117 31.972 105.657 32.92C106.209 33.856 106.485 35.008 106.485 36.376C106.485 37.828 106.173 39.082 105.549 40.138C104.925 41.194 104.031 42.004 102.867 42.568C101.703 43.12 100.329 43.396 98.7454 43.396ZM122.466 39.364H113.502L112.17 43H107.13L117.75 17.476H118.11L128.766 43H123.87L122.466 39.364ZM121.134 35.872L118.506 29.032L117.894 27.016L117.318 29.032L114.798 35.872H121.134ZM143.414 29.716C144.818 30.052 145.868 30.742 146.564 31.786C147.26 32.818 147.608 34.144 147.608 35.764C147.608 38.068 146.822 39.85 145.25 41.11C143.69 42.37 141.272 43 137.996 43H131.192V17.908H137.888C143.528 17.908 146.348 20.14 146.348 24.604C146.348 25.648 146.102 26.644 145.61 27.592C145.118 28.54 144.386 29.248 143.414 29.716ZM141.884 24.748C141.884 23.548 141.512 22.702 140.768 22.21C140.024 21.718 139.064 21.472 137.888 21.472H135.728V28.42H138.644C139.412 28.42 140.036 28.234 140.516 27.862C140.996 27.49 141.344 27.028 141.56 26.476C141.776 25.912 141.884 25.336 141.884 24.748ZM138.5 39.364C139.796 39.364 140.846 39.094 141.65 38.554C142.454 38.002 142.856 36.988 142.856 35.512C142.856 34.036 142.436 33.046 141.596 32.542C140.768 32.026 139.664 31.768 138.284 31.768H135.728V39.364H138.5ZM160.509 43.432C158.277 43.432 156.375 42.904 154.803 41.848C153.231 40.78 152.043 39.274 151.239 37.33C150.435 35.374 150.033 33.076 150.033 30.436C150.033 27.82 150.429 25.54 151.221 23.596C152.025 21.64 153.201 20.134 154.749 19.078C156.309 18.01 158.193 17.476 160.401 17.476C162.693 17.476 164.625 18.016 166.197 19.096C167.769 20.164 168.945 21.67 169.725 23.614C170.517 25.558 170.913 27.832 170.913 30.436C170.913 33.076 170.505 35.374 169.689 37.33C168.885 39.274 167.703 40.78 166.143 41.848C164.583 42.904 162.705 43.432 160.509 43.432ZM160.509 39.58C161.577 39.58 162.531 39.238 163.371 38.554C164.223 37.87 164.895 36.832 165.387 35.44C165.879 34.048 166.125 32.344 166.125 30.328C166.125 27.364 165.621 25.108 164.613 23.56C163.617 22 162.213 21.22 160.401 21.22C158.637 21.22 157.269 22 156.297 23.56C155.337 25.108 154.857 27.376 154.857 30.364C154.857 32.404 155.085 34.114 155.541 35.494C156.009 36.862 156.663 37.888 157.503 38.572C158.355 39.244 159.357 39.58 160.509 39.58ZM183.628 43.468C180.904 43.468 178.732 42.742 177.112 41.29C175.504 39.826 174.7 37.408 174.7 34.036V17.908H179.38V34.54C179.38 36.436 179.794 37.744 180.622 38.464C181.462 39.184 182.44 39.544 183.556 39.544C184.684 39.544 185.644 39.19 186.436 38.482C187.228 37.774 187.624 36.46 187.624 34.54V17.908H192.304V34.036C192.304 37.408 191.518 39.826 189.946 41.29C188.374 42.742 186.268 43.468 183.628 43.468ZM208.723 43L202.279 33.928V43H197.707V17.908H204.691C210.643 17.908 213.619 20.572 213.619 25.9C213.619 27.088 213.427 28.258 213.043 29.41C212.659 30.55 212.029 31.564 211.153 32.452C210.289 33.34 209.179 33.952 207.823 34.288L214.303 43H208.723ZM204.187 31.66C205.207 31.66 206.077 31.42 206.797 30.94C207.529 30.448 208.081 29.8 208.453 28.996C208.825 28.18 209.011 27.292 209.011 26.332C209.011 24.676 208.627 23.458 207.859 22.678C207.103 21.898 205.843 21.508 204.079 21.508H202.279V31.66H204.187Z" fill="#26282F"/>
<g clip-path="url(#clip0_129_1016)">
<path d="M18.1964 53C21.5148 53 23.2765 50.008 23.7945 48.2404C23.8028 48.2125 23.8105 48.1841 23.8176 48.155C25.0247 43.1075 26.9477 35.1073 28.3722 29.2882H33.4691C34.4275 29.2882 35.2046 28.504 35.2046 27.5362C35.2046 26.5684 34.4275 25.7841 33.4691 25.7841H29.2348C29.6908 23.9507 30.0245 22.6449 30.1558 22.1992L30.3017 21.7004C30.8397 19.8468 32.0996 15.5049 34.0479 15.5049C35.8546 15.5049 36.1239 18.314 36.1361 18.4497C36.2131 19.4115 37.044 20.1379 37.9989 20.0548C38.9547 19.9811 39.67 19.1379 39.5962 18.1736C39.434 16.038 38.0642 12 34.0473 12C29.499 12 27.7915 17.8856 26.971 20.7147L26.8314 21.192C26.6647 21.7519 26.2273 23.4769 25.6568 25.7841H19.5847C18.6261 25.7841 17.8493 26.5684 17.8493 27.5362C17.8493 28.504 18.6261 29.2882 19.5847 29.2882H24.797C23.0151 36.5846 20.7123 46.2088 20.459 47.2683C20.3644 47.546 19.6528 49.4956 18.1972 49.4956C15.9745 49.4956 15.0122 46.346 15.0045 46.3224C14.7377 45.3934 13.7777 44.8558 12.8547 45.1268C11.9342 45.3963 11.4036 46.3679 11.6704 47.2974C12.2776 49.4151 14.3348 53 18.1964 53Z" fill="#26282F"/>
<path d="M50.6181 47C51.6958 47 52.6014 46.2661 52.6014 45.0978C52.6014 44.5551 52.375 44.0654 51.893 43.5218L48.0957 39.3373L51.7804 35.207C52.1204 34.7993 52.375 34.3646 52.375 33.794C52.375 32.7604 51.4961 32 50.3622 32C49.5974 32 49.0028 32.4618 48.4918 33.0607L45.6298 36.6463L42.8243 33.0601C42.2567 32.3815 41.6625 32 40.8124 32C39.7344 32 38.8284 32.7345 38.8284 33.9028C38.8284 34.4455 39.0554 34.9352 39.5362 35.4779L43.0792 39.3912L39.196 43.793C38.8275 44.2007 38.6014 44.6354 38.6014 45.206C38.6014 46.2393 39.48 46.9994 40.613 46.9994C41.3784 46.9994 41.9733 46.5376 42.4834 45.9393L45.5433 42.0814L48.6041 45.9393C49.1728 46.6197 49.768 47 50.6181 47Z" fill="#26282F"/>
</g>
<defs>
<clipPath id="clip0_129_1016">
<rect width="53" height="53" fill="white" transform="translate(7.60141)"/>
</clipPath>
</defs>
</svg>
