<svg width="256" height="384" viewBox="0 0 256 384" fill="none" xmlns="http://www.w3.org/2000/svg">
<rect width="256" height="384" rx="24" fill="url(#paint0_linear_142_2)" fill-opacity="0.8"/>
<path d="M43.4133 204V185.818H50.5866C51.9656 185.818 53.1404 186.082 54.1111 186.608C55.0817 187.129 55.8215 187.854 56.3305 188.783C56.8454 189.707 57.1029 190.772 57.1029 191.979C57.1029 193.187 56.8425 194.252 56.3216 195.175C55.8008 196.099 55.0462 196.818 54.0578 197.333C53.0753 197.848 51.8857 198.105 50.4889 198.105H45.9168V195.025H49.8675C50.6073 195.025 51.2169 194.897 51.6963 194.643C52.1816 194.382 52.5426 194.024 52.7794 193.569C53.022 193.107 53.1434 192.577 53.1434 191.979C53.1434 191.376 53.022 190.849 52.7794 190.399C52.5426 189.943 52.1816 189.591 51.6963 189.343C51.211 189.088 50.5954 188.961 49.8497 188.961H47.2574V204H43.4133ZM59.5998 204V185.818H66.7731C68.1462 185.818 69.3181 186.064 70.2887 186.555C71.2653 187.04 72.008 187.73 72.517 188.624C73.032 189.511 73.2894 190.556 73.2894 191.757C73.2894 192.965 73.029 194.004 72.5082 194.874C71.9873 195.738 71.2327 196.401 70.2443 196.862C69.2618 197.324 68.0722 197.555 66.6754 197.555H61.8725V194.465H66.054C66.7879 194.465 67.3975 194.365 67.8828 194.163C68.3681 193.962 68.7292 193.66 68.9659 193.258C69.2086 192.855 69.3299 192.355 69.3299 191.757C69.3299 191.154 69.2086 190.645 68.9659 190.23C68.7292 189.816 68.3652 189.502 67.8739 189.289C67.3886 189.07 66.776 188.961 66.0362 188.961H63.4439V204H59.5998ZM69.4187 195.726L73.9375 204H69.6939L65.2727 195.726H69.4187ZM92.7141 194.909C92.7141 196.892 92.3383 198.579 91.5866 199.969C90.8409 201.36 89.8229 202.423 88.5327 203.157C87.2483 203.885 85.8042 204.249 84.2003 204.249C82.5845 204.249 81.1345 203.882 79.8501 203.148C78.5658 202.414 77.5508 201.351 76.805 199.961C76.0593 198.57 75.6864 196.886 75.6864 194.909C75.6864 192.926 76.0593 191.24 76.805 189.849C77.5508 188.458 78.5658 187.398 79.8501 186.67C81.1345 185.937 82.5845 185.57 84.2003 185.57C85.8042 185.57 87.2483 185.937 88.5327 186.67C89.8229 187.398 90.8409 188.458 91.5866 189.849C92.3383 191.24 92.7141 192.926 92.7141 194.909ZM88.8168 194.909C88.8168 193.625 88.6244 192.542 88.2397 191.66C87.8609 190.778 87.3253 190.109 86.6328 189.653C85.9403 189.198 85.1295 188.97 84.2003 188.97C83.2711 188.97 82.4602 189.198 81.7678 189.653C81.0753 190.109 80.5367 190.778 80.152 191.66C79.7732 192.542 79.5838 193.625 79.5838 194.909C79.5838 196.193 79.7732 197.277 80.152 198.158C80.5367 199.04 81.0753 199.709 81.7678 200.165C82.4602 200.621 83.2711 200.848 84.2003 200.848C85.1295 200.848 85.9403 200.621 86.6328 200.165C87.3253 199.709 87.8609 199.04 88.2397 198.158C88.6244 197.277 88.8168 196.193 88.8168 194.909ZM107.618 191.695C107.494 191.263 107.319 190.882 107.094 190.55C106.869 190.213 106.594 189.929 106.268 189.698C105.949 189.461 105.582 189.281 105.168 189.156C104.759 189.032 104.306 188.97 103.809 188.97C102.88 188.97 102.063 189.201 101.359 189.662C100.661 190.124 100.116 190.796 99.7254 191.678C99.3348 192.554 99.1395 193.625 99.1395 194.891C99.1395 196.158 99.3318 197.235 99.7165 198.123C100.101 199.011 100.646 199.688 101.35 200.156C102.054 200.618 102.886 200.848 103.845 200.848C104.715 200.848 105.458 200.694 106.073 200.387C106.695 200.073 107.168 199.632 107.494 199.064C107.825 198.496 107.991 197.824 107.991 197.049L108.772 197.164H104.084V194.27H111.693V196.56C111.693 198.158 111.355 199.531 110.681 200.68C110.006 201.822 109.077 202.704 107.893 203.325C106.709 203.941 105.354 204.249 103.827 204.249C102.122 204.249 100.625 203.873 99.3348 203.121C98.0445 202.364 97.0384 201.289 96.3163 199.898C95.6002 198.502 95.2421 196.844 95.2421 194.927C95.2421 193.453 95.4552 192.139 95.8813 190.985C96.3134 189.825 96.9171 188.843 97.6924 188.038C98.4677 187.233 99.3703 186.62 100.4 186.2C101.43 185.78 102.546 185.57 103.747 185.57C104.777 185.57 105.736 185.721 106.623 186.022C107.511 186.318 108.298 186.739 108.985 187.283C109.677 187.828 110.243 188.476 110.681 189.227C111.119 189.973 111.4 190.796 111.524 191.695H107.618ZM114.58 204V185.818H121.754C123.127 185.818 124.299 186.064 125.269 186.555C126.246 187.04 126.989 187.73 127.498 188.624C128.012 189.511 128.27 190.556 128.27 191.757C128.27 192.965 128.009 194.004 127.489 194.874C126.968 195.738 126.213 196.401 125.225 196.862C124.242 197.324 123.053 197.555 121.656 197.555H116.853V194.465H121.034C121.768 194.465 122.378 194.365 122.863 194.163C123.349 193.962 123.71 193.66 123.946 193.258C124.189 192.855 124.31 192.355 124.31 191.757C124.31 191.154 124.189 190.645 123.946 190.23C123.71 189.816 123.346 189.502 122.854 189.289C122.369 189.07 121.757 188.961 121.017 188.961H118.424V204H114.58ZM124.399 195.726L128.918 204H124.674L120.253 195.726H124.399ZM134.12 204H130.001L136.278 185.818H141.232L147.499 204H143.38L138.826 189.973H138.684L134.12 204ZM133.863 196.853H143.593V199.854H133.863V196.853ZM149.688 185.818H154.428L159.436 198.034H159.649L164.656 185.818H169.396V204H165.668V192.166H165.517L160.812 203.911H158.273L153.567 192.121H153.416V204H149.688V185.818ZM172.564 185.818H177.304L182.312 198.034H182.525L187.532 185.818H192.272V204H188.544V192.166H188.393L183.688 203.911H181.149L176.443 192.121H176.292V204H172.564V185.818ZM195.44 204V185.818H207.691V188.988H199.284V193.32H207.061V196.489H199.284V200.831H207.727V204H195.44ZM32.2316 215.818H36.9724L41.9795 228.034H42.1926L47.1997 215.818H51.9404V234H48.2117V222.166H48.0608L43.3556 233.911H40.8165L36.1112 222.121H35.9603V234H32.2316V215.818ZM54.4151 218.988V215.818H69.3477V218.988H63.7812V234H59.9815V218.988H54.4151ZM71.8068 234V215.818H75.6509V223.32H83.4545V215.818H87.2898V234H83.4545V226.489H75.6509V234H71.8068ZM90.4592 234V215.818H102.711V218.988H94.3033V223.32H102.08V226.489H94.3033V230.831H102.746V234H90.4592ZM95.2532 214.06L97.1353 210.021H100.633L97.9254 214.06H95.2532ZM105.767 215.818H110.508L115.515 228.034H115.728L120.735 215.818H125.476V234H121.747V222.166H121.596L116.891 233.911H114.352L109.646 222.121H109.495V234H105.767V215.818ZM131.777 234H127.657L133.934 215.818H138.888L145.156 234H141.036L136.482 219.973H136.34L131.777 234ZM131.519 226.853H141.249V229.854H131.519V226.853ZM144.43 218.988V215.818H159.362V218.988H153.796V234H149.996V218.988H144.43ZM165.666 215.818V234H161.821V215.818H165.666ZM175.691 227.679H178.958L180.6 229.792L182.216 231.674L185.261 235.491H181.675L179.579 232.917L178.505 231.39L175.691 227.679ZM185.536 224.909C185.536 226.892 185.161 228.579 184.409 229.969C183.663 231.36 182.645 232.423 181.355 233.157C180.071 233.885 178.626 234.249 177.023 234.249C175.407 234.249 173.957 233.882 172.672 233.148C171.388 232.414 170.373 231.351 169.627 229.961C168.882 228.57 168.509 226.886 168.509 224.909C168.509 222.926 168.882 221.24 169.627 219.849C170.373 218.458 171.388 217.398 172.672 216.67C173.957 215.937 175.407 215.57 177.023 215.57C178.626 215.57 180.071 215.937 181.355 216.67C182.645 217.398 183.663 218.458 184.409 219.849C185.161 221.24 185.536 222.926 185.536 224.909ZM181.639 224.909C181.639 223.625 181.447 222.542 181.062 221.66C180.683 220.778 180.148 220.109 179.455 219.653C178.763 219.198 177.952 218.97 177.023 218.97C176.093 218.97 175.282 219.198 174.59 219.653C173.898 220.109 173.359 220.778 172.974 221.66C172.595 222.542 172.406 223.625 172.406 224.909C172.406 226.193 172.595 227.277 172.974 228.158C173.359 229.04 173.898 229.709 174.59 230.165C175.282 230.621 176.093 230.848 177.023 230.848C177.952 230.848 178.763 230.621 179.455 230.165C180.148 229.709 180.683 229.04 181.062 228.158C181.447 227.277 181.639 226.193 181.639 224.909ZM199.614 215.818H203.459V227.626C203.459 228.951 203.142 230.112 202.509 231.106C201.881 232.1 201.002 232.875 199.872 233.432C198.741 233.982 197.425 234.257 195.921 234.257C194.412 234.257 193.092 233.982 191.962 233.432C190.831 232.875 189.952 232.1 189.325 231.106C188.698 230.112 188.384 228.951 188.384 227.626V215.818H192.228V227.297C192.228 227.99 192.379 228.605 192.681 229.144C192.989 229.682 193.421 230.106 193.977 230.413C194.533 230.721 195.181 230.875 195.921 230.875C196.667 230.875 197.315 230.721 197.866 230.413C198.422 230.106 198.851 229.682 199.153 229.144C199.461 228.605 199.614 227.99 199.614 227.297V215.818ZM206.621 234V215.818H218.873V218.988H210.465V223.32H218.242V226.489H210.465V230.831H218.908V234H206.621Z" fill="white"/>
<path d="M98.8476 73.5429H140.669V67.018C139.797 65.8819 139.213 64.5201 139.021 63.0346H106.408C105.817 63.0346 105.336 62.5612 105.336 61.9786C105.336 61.396 105.817 60.9227 106.408 60.9227H139.021C139.553 56.8009 143.13 53.604 147.454 53.604C152.139 53.604 155.952 57.3616 155.952 61.9786C155.952 63.872 155.317 65.6125 154.238 67.018V73.5429H159.152C160.172 73.5429 161 72.7273 161 71.7223V35.8206C161 34.8156 160.172 34 159.152 34H98.8476C97.8277 34 97 34.8156 97 35.8206V71.7223C97 72.7273 97.8277 73.5429 98.8476 73.5429ZM117.937 39.7166H140.063C140.677 39.7166 141.172 40.2045 141.172 40.809C141.172 41.4134 140.677 41.9013 140.063 41.9013H117.937C117.323 41.9013 116.828 41.4134 116.828 40.809C116.828 40.2045 117.323 39.7166 117.937 39.7166ZM106.408 46.7368H151.592C152.183 46.7368 152.664 47.2101 152.664 47.7927C152.664 48.3753 152.183 48.8486 151.592 48.8486H106.408C105.817 48.8486 105.336 48.3753 105.336 47.7927C105.336 47.2101 105.817 46.7368 106.408 46.7368Z" fill="#EAEAEA"/>
<path d="M142.554 68.8167V73.5429V79.9076C142.554 80.5703 143.101 80.9999 143.67 80.9999C143.958 80.9999 144.246 80.8907 144.475 80.6504L146.641 78.3491C146.862 78.1161 147.158 77.9996 147.454 77.9996C147.749 77.9996 148.045 78.1161 148.267 78.3491L150.432 80.6504C150.661 80.8907 150.949 80.9999 151.237 80.9999C151.806 80.9999 152.353 80.5703 152.353 79.9076V73.5429V68.8167C150.971 69.7852 149.279 70.3532 147.454 70.3532C145.628 70.3532 143.943 69.7852 142.554 68.8167Z" fill="#EAEAEA"/>
<path d="M153.358 64.0394C153.602 63.3695 153.735 62.6558 153.735 61.9785C153.735 58.5631 150.92 55.7886 147.454 55.7886C143.988 55.7886 141.172 58.5631 141.172 61.9785C141.172 62.9252 141.46 64.0904 141.955 64.9716C142.14 65.2993 142.354 65.6125 142.598 65.8964C143.751 67.2801 145.503 68.1613 147.454 68.1613C149.405 68.1613 151.156 67.2801 152.309 65.8964C152.752 65.3648 153.115 64.724 153.358 64.0394Z" fill="#EAEAEA"/>
<defs>
<linearGradient id="paint0_linear_142_2" x1="77.5" y1="284" x2="353" y2="-160.5" gradientUnits="userSpaceOnUse">
<stop stop-color="#332441"/>
<stop offset="1" stop-color="#4E323F" stop-opacity="0.78"/>
</linearGradient>
</defs>
</svg>
